<?xml version="1.0" encoding="UTF-8"?>
<svg xmlns="http://www.w3.org/2000/svg" xmlns:xlink="http://www.w3.org/1999/xlink" viewBox="0 0 498.64 212.94">
  <defs>
    <style>
      .cls-1, .cls-2, .cls-3, .cls-4, .cls-5, .cls-6, .cls-7, .cls-8, .cls-9, .cls-10, .cls-11, .cls-12, .cls-13, .cls-14 {
        stroke-miterlimit: 10;
      }

      .cls-1, .cls-2, .cls-3, .cls-4, .cls-6, .cls-7, .cls-8, .cls-10, .cls-11, .cls-12 {
        stroke: #fff;
        stroke-width: 14px;
      }

      .cls-1, .cls-14 {
        fill: #f99942;
      }

      .cls-2 {
        filter: url(#drop-shadow-2);
      }

      .cls-2, .cls-3, .cls-4, .cls-5, .cls-6, .cls-7, .cls-9, .cls-10, .cls-11, .cls-12 {
        fill: #d5201a;
      }

      .cls-4 {
        filter: url(#drop-shadow-1);
      }

      .cls-5, .cls-13, .cls-14 {
        stroke: #f99942;
      }

      .cls-6 {
        filter: url(#drop-shadow-5);
      }

      .cls-7 {
        filter: url(#drop-shadow-4);
      }

      .cls-8, .cls-13 {
        fill: #fefefd;
      }

      .cls-9 {
        stroke: #d5201a;
        stroke-width: 2px;
      }

      .cls-10 {
        filter: url(#drop-shadow-7);
      }

      .cls-15 {
        filter: url(#drop-shadow-9);
      }

      .cls-11 {
        filter: url(#drop-shadow-6);
      }

      .cls-12 {
        filter: url(#drop-shadow-3);
      }
    </style>
    <filter id="drop-shadow-1" filterUnits="userSpaceOnUse">
      <feOffset dx="7" dy="7"/>
      <feGaussianBlur result="blur" stdDeviation="5"/>
      <feFlood flood-color="#000" flood-opacity=".33"/>
      <feComposite in2="blur" operator="in"/>
      <feComposite in="SourceGraphic"/>
    </filter>
    <filter id="drop-shadow-2" filterUnits="userSpaceOnUse">
      <feOffset dx="7" dy="7"/>
      <feGaussianBlur result="blur-2" stdDeviation="5"/>
      <feFlood flood-color="#000" flood-opacity=".33"/>
      <feComposite in2="blur-2" operator="in"/>
      <feComposite in="SourceGraphic"/>
    </filter>
    <filter id="drop-shadow-3" filterUnits="userSpaceOnUse">
      <feOffset dx="7" dy="7"/>
      <feGaussianBlur result="blur-3" stdDeviation="5"/>
      <feFlood flood-color="#000" flood-opacity=".33"/>
      <feComposite in2="blur-3" operator="in"/>
      <feComposite in="SourceGraphic"/>
    </filter>
    <filter id="drop-shadow-4" filterUnits="userSpaceOnUse">
      <feOffset dx="7" dy="7"/>
      <feGaussianBlur result="blur-4" stdDeviation="5"/>
      <feFlood flood-color="#000" flood-opacity=".33"/>
      <feComposite in2="blur-4" operator="in"/>
      <feComposite in="SourceGraphic"/>
    </filter>
    <filter id="drop-shadow-5" filterUnits="userSpaceOnUse">
      <feOffset dx="7" dy="7"/>
      <feGaussianBlur result="blur-5" stdDeviation="5"/>
      <feFlood flood-color="#000" flood-opacity=".33"/>
      <feComposite in2="blur-5" operator="in"/>
      <feComposite in="SourceGraphic"/>
    </filter>
    <filter id="drop-shadow-6" filterUnits="userSpaceOnUse">
      <feOffset dx="7" dy="7"/>
      <feGaussianBlur result="blur-6" stdDeviation="5"/>
      <feFlood flood-color="#000" flood-opacity=".33"/>
      <feComposite in2="blur-6" operator="in"/>
      <feComposite in="SourceGraphic"/>
    </filter>
    <filter id="drop-shadow-7" filterUnits="userSpaceOnUse">
      <feOffset dx="7" dy="7"/>
      <feGaussianBlur result="blur-7" stdDeviation="5"/>
      <feFlood flood-color="#000" flood-opacity=".33"/>
      <feComposite in2="blur-7" operator="in"/>
      <feComposite in="SourceGraphic"/>
    </filter>
    <filter id="drop-shadow-9" filterUnits="userSpaceOnUse">
      <feOffset dx="7" dy="7"/>
      <feGaussianBlur result="blur-8" stdDeviation="5"/>
      <feFlood flood-color="#000" flood-opacity=".33"/>
      <feComposite in2="blur-8" operator="in"/>
      <feComposite in="SourceGraphic"/>
    </filter>
  </defs>
  <g id="Calque_5" data-name="Calque 5">
    <path class="cls-4" d="M37.4,103.17v-9.83h-10.69v-9.72h-9.83v-10.91h10.91v9.83h28.3v-18.58h-29.38v-9.72h-9.83v-20.52h9.83v-9.83h10.69v-9.83h11.02v9.83h8.75v9.83h9.94v10.8h-11.02v-9.72h-28.3v18.47h29.38v9.61h9.94v20.74h-9.94v9.72h-8.75v9.83h-11.02Z"/>
    <path class="cls-2" d="M80.32,93.67v-59.62h9.83v-9.83h10.8v10.91h-9.72v18.47h8.64v-9.83h9.94v-9.72h9.72v-9.83h11.02v10.91h-9.94v9.72h-9.72v9.72h-9.94v8.64h9.94v9.83h9.72v9.83h9.94v10.8h-11.02v-9.72h-9.72v-9.83h-9.94v-9.83h-8.64v29.38h-10.91Z"/>
    <path class="cls-12" d="M143.6,93.67v-10.8h9.83v-47.74h-9.83v-10.91h30.56v10.91h-9.94v47.74h9.94v10.8h-30.56Z"/>
    <path class="cls-7" d="M187.23,93.67v-59.62h9.83v-9.83h10.8v9.83h9.94v19.55h8.64v-19.55h9.94v-9.83h10.91v9.83h9.72v59.62h-10.8v-58.54h-8.75v19.44h-9.94v29.38h-10.8v-29.38h-9.94v-19.44h-8.64v58.54h-10.91Z"/>
    <path class="cls-6" d="M279.9,93.67v-9.72h-9.83v-49.9h9.83v-9.83h30.46v9.83h9.94v20.52h-9.94v8.64h9.94v20.74h-9.94v9.72h-30.46ZM280.98,82.87h28.3v-18.58h-19.66v-10.69h19.66v-18.47h-28.3v47.74Z"/>
    <path class="cls-11" d="M185.02,175.67v-9.72h-9.83v-59.72h10.91v58.64h28.3v-58.64h11.02v59.72h-9.94v9.72h-30.46Z"/>
    <path class="cls-10" d="M238.48,175.67v-59.62h9.83v-9.83h30.46v9.83h9.94v30.24h-9.94v9.83h-29.38v19.55h-10.91ZM249.39,145.21h28.3v-28.08h-28.3v28.08Z"/>
  </g>
  <g id="Calque_7" data-name="Calque 7">
    <g class="cls-15">
      <path class="cls-3" d="M412.36,100.39c.05.5-.23.9-.44,1.31-.1.62-.98.95-.64,1.74.01,1.25.19,2.45.62,3.64.32.89.32,1.93,1.77,1.33.54-.22.76.41.88.84.69,2.44.95,4.96,1.21,7.47.06.54-.23,1.07-.7,1.26-1.2.5-.94,1.42-.85,2.36.12,1.21.78,2.47-.24,3.62-.12.13-.02.48.02.72.35,2.5.7,5,1.06,7.59.39.25.47-.55.94-.41.9,5.09,1.56,10.25,2.04,15.42.47,5.03,1.9,9.82,3.69,14.49.96,2.51,1.31,5.18,2.28,7.69.26.68.18,1.51-.43,2.12-1.11.33-1.7,1.62-1.87,2.24-.56,2.04-1.8,1.24-2.79.95-1.29-.39-1.97-.08-2.26,1.36-.63-1.54-1.49-1.84-2.69-.71-.27.25-.48.01-.7-.26-.78-.92-1.56-.88-2.25.14-.59-.81-1.36-1.26-2.34-.84-.37.16-.61.66-.61,1.16-.06.09-.12.18-.18.27-.54-.04-.5-.38-.37-.75.14-.41.22-.91-.2-1.08-1.65-.66-3-2.3-5.07-1.61-.35-.17-.52-.45-.54-.83-.22-7.51-2.35-14.62-4.62-21.69-.24-2.06-1.04-3.91-2.21-5.59-.48-.68-1-1.64-2.15-1.16-.91.38-1.87.67-2.6,1.39-1.08-.1-2,.56-3.06.61-1.8.1-3.49-.31-5.14-.93-1.8-.68-3.34-.29-4.67,1.06-.96.7-1.93,1.4-2.89,2.11-.44.33-.95.62-1.12,1.19-.33,1.09-1.07,1.93-1.65,2.86-.29.59-.74,1.13-.62,1.85l.03-.02c-.31-.1-.23.18-.31.31-.5.51-.65,1.19-.86,1.84-1.59,3.55-2.7,7.27-3.75,11-.16.18-.43.32-.23.64-.07.07-.14.14-.22.21-1.24-.61-1.68-.24-1.25,1.07.26.79.15,1.6.26,2.39-.03.46-.05.92-.08,1.38-.5.39-.43,1.26-1.29,1.45-.35-.9-.69-1.78-1.02-2.66-.12-.33-.31-.9-.59-.74-1.12.64-.5-.4-.57-.61-.14-.36-.06-.8-.17-1.18-.1-.33.09-.94-.53-.91-.53.03-.98.34-.99.94-.02,1.07-.82,1.59-1.48,2.23,0,0,0,0,0,0,.13-.33.25-.66.38-.98.21-.52.46-1.19.03-1.55-.45-.37-1.13-.52-1.8-.34-.47.13-.88.51-1.42.35-.49-.26-.95-.43-1.19.29-.42.04-.48.68-1.05.59-.01-.48.45-1.1-.51-1.32-.91-.21-.82.47-1.08.89-.35.57-.72,1.13-1.08,1.69-.03-.58.1-1.08.38-1.48.56-.81.29-1.2-.56-1.48-.71-.24-1.44.58-2.12-.07-.22.41-.51.81-.63,1.25-.16.58-.36,1-1.25,1.02.97-1.58,2.04-3.09.37-4.69-.97-1.34-.41-2.66.01-4.01,1.71-5.42,4.7-10.26,7.02-15.4,1.16-2.58,1.07-5.32,1.75-7.94.32-1.21.45-2.48.68-3.73.5.13.05.74.71.92.09-2.31.84-4.5.78-6.8-.03-1.21-.12-2.42-.19-3.63-.04-.79.33-1.77-1.14-1.7-.53.02-.66-.77-.7-1.23-.24-2.77-.45-5.54-.38-8.32.02-.85.3-1.53,1.38-1.26.41.1.66.04.72-.46.18-1.64,1.07-3.34-.47-4.82-.05-.04,0-.18,0-.28.44.07.67.41.9.73.97,1.31,2.16,2.38,3.48,3.32.39.28.75.84,1.5.14-.24-.15-.45-.29-.66-.43-3.86-2.59-6.29-6.12-7.13-10.72-.06-.34.01-.86-.57-.92-1.67-.34-2.23-1.37-2.18-4.09.41-.04.56.38.88.5.79.43,1.08,1.4,1.94,1.76-.17.87.29,1.56.74,2.2,1.08,1.53,2.3,2.93,3.75,4.13,3.62,2.99,7.98,4.37,12.33,5.79.4.13.66-.15.96-.31.32.04.43.88.92.24.87.15.28,1.72,1.49,1.54.64.04,1.16.62,1.86.37.01.91.78.94,1.25.78,1.58-.56,3.21-.41,4.82-.51,2.3-.1,4.6-.2,6.9-.3-.74-.81-1.55-.67-2.36-.56h0c.03-.13.1-.4.08-.41-2.04-.62-3.57-2.08-5.33-3.16-.62-.38-1.68-.82-2.54-.03-.5.46-.99,1.21-1.78.62-.64-.49-1.15-1.1-1.18-2.05-.04-1.08-1.01-1.69-1.81-1.88-1.1-.25-.09.9-.53,1.26-.23.19-.3.52-.19.84-.29,1.08.41,2.3-.44,3.3-.88-1.15-2.53-1.66-3.86-1.19-.21-.05-.43-.1-.64-.15-.4-1.15-.32-2.39-.55-3.56-.47-2.44-1.2-4.14-3.62-5.25-1.42-.65-3.04-1.03-4.21-2.5-.94-1.18-2.59-3.92-2.25-5.57,1.09,1.04,1.32,2.72,2.66,3.58.74-.16.43-.73.34-1.08-.48-2.04-.55-4.08-.24-6.14.3-1.96,1.22-3.66,2.32-5.24.66-.95,1.7-.69,3.03-.23-1.34.32-2.28.61-2.89,1.79,1.47-.21,2.68.15,3.85.66,0,0,.05.14.05.14-.27.66.09,1.2.39,1.71,1.1,1.81,2.2,3.62,3.37,5.38.58.87.92,2.11,1.93,2.46,1.52.53,2.77,1.34,3.96,2.38.58.5,1.09.3,1.27-.57.13-.66.24-1.67,1.01-1.65.77.02,1.05.97,1.28,1.71.09.29.19.58.31.85.28.62.79.87,1.45.92.82.06.87-.62.99-1.1.16-.67.37-1.01,1.16-1.06,1.16-.07,2.08-.61,2.6-1.77.39-.88.99-1.19,1.91-.48.48.37,1.09.93,1.78.56,1.18-.64,2.31-.31,3.3.24,1.68.92,1.59-.3,1.76-1.28.03-.2.02-.41,0-.61-.27-2.76.58-4.24,3.14-5.43.28-.13.65-.18.71-.49.34-1.67.86-3.39.14-5.04-.35-.79-.22-1.13.47-1.37.84-.3,1.03-.64.16-1.16-.24-.15-.63-.24-.5-.63.14-.39.56-.56.87-.41.93.43,1.05-.19,1.06-1.14.63.67,1.15,1.04,1.43,1.55,1.23,2.2,1.97,4.6,2.48,7.06.42,2.04.4,4.12.34,6.2-.01.41-.7.82-.17,1.18.75.52.41-.57.83-.67.23-.06.46-.43.62-.39,1.47.4,1.67-.68,2.05-1.64.14-.34.4-.8.92-.52.53.29.18.7.05,1.05-.32.85-.65,1.69-.96,2.55-.09.26-.35.6.04.78.16.07.59-.06.66-.21.42-.95,1.41-1.05,2.14-1.53.22.87-.17,1.61-.45,2.4-.4,1.15-1.23,2.12-1.41,3.36-1.32.73-1.89,2.15-2.93,3.15-.87.26-1.37.92-2.07,1.9,1.25-.3,1.79-.97,2.34-1.63,1.28-.82,2.39-1.78,2.71-3.37,1.19-.07,1.12-1.19,1.56-1.88.35.75.02,1.67.56,2.38.19.7-.12,1.32-.29,1.97-.5.26-.2.73-.29,1.1ZM386.12,104.33c-.26,0-.47.06-.61.3-1.01.2-1.97.47-2.79,1.59,1.29-.24,2.14-.76,2.91-1.45.2-.11.4-.22.6-.32.07-.06.2-.17.2-.17-.14-.19-.23-.08-.32.06ZM419.53,167.42c.34.36.79.8,1.16.22.27-.41.28-1.07-.51-1.22-.01-.18-.02-.36-.04-.54.14-.06.27-.11.41-.17-.89-1.04-.42-2.27-.46-3.43-.04-1.17-1.14-.85-1.7-1.29-.21-.16-.45-.29-.67-.11-.29.23-.23.62-.04.82.68.69.25,1.37.14,2.1-.17,1.1-.04,2.17,1.03,2.86.06.11.13.21.19.32-.02.24.1.35.32.37.05.04.11.06.18.08ZM394.16,102.23c.58-.5.02-.86-.17-1.25-.02-.05-.29-.06-.36,0-.39.36-.19.81-.12,1.23.14,2.19.27,4.38.41,6.58.02.36.14.68.5.86,1.09,3.33,2.18,6.65,3.28,9.98-.11-1.76.09-3.45-.76-5.17-.93-1.88-1.24-4.11-2.15-6.08-.21-2.05-.41-4.1-.62-6.15ZM380.3,119.39c2.74.4,5.06-.94,5.81-3.22.32-.98-.64-1.28-1.11-1.79-.56-.61-.87.04-1.16.41-1.14,1.47-2.28,2.95-3.54,4.59ZM404.31,160.63c1.07-.19,1.49-.81,2.19-.84.29-.01.78-.5.32-.73-1.25-.63-.95-1.5-.75-2.54.17-.9-.07-1.96-1.22-2.04-1.25-.09-1.28.9-1.3,1.88-.02,1.47,1.69,2.46.76,4.26ZM381.74,112.43c-1.25,0-2.27.03-3.28,0-.87-.03-1.24.34-1.36,1.21-.25,1.75-.61,3.49-.92,5.23.16.05.31.1.47.16.16-1.45.06-2.99,1.13-4.11,1.06-1.12,2.35-1.84,3.97-2.48ZM395.36,107.24c3.43-.65,6.52-2.13,9.42-4.05.38-.25.87-.58.44-1.06-.38-.42-.68.13-1,.33-.25.16-.52.3-.77.47-2.52,1.75-5.46,2.72-8.09,4.31ZM363.04,110.88c.97,1.96,7.08,4.51,9.42,4.1-3.21-.9-6.21-2.27-9.42-4.1ZM389.27,118.81c-.68-.63-1.01-1.74-1.92-1.54-.71.16-1.29.98-1.53,1.91,1.19.05,2.26.05,3.45-.37ZM355.54,148.64c.52.76,1.62.96,2.16.93.83-.04-.23-1.28.43-1.9.17-.16-.39-.41-.65-.31-.7.28-1.62.24-1.94,1.27ZM364.17,171.95c.48-1.77-.23-2.88-.61-4.03-.09-.28-.36-.57-.84-.38-.5.21-.29.51-.24.84.19,1.21.89,2.16,1.68,3.57ZM417.45,154.37c-.76-.67-.78-1.78-1.39-2.58-.2-.26-.49-.37-.8-.21-.26.13-.31.41-.2.65.38.81.78,1.62,1.18,2.42.23.45.62.15.94.17.24.01.34-.15.26-.44ZM353.55,156.58c.04-.61-.28-.92-.69-.89-.9.06-.63.99-.95,1.49-.16.24,0,.5.33.46.69-.09,1.19-.43,1.31-1.06ZM391.24,111.94c-.89-.7-1.81-.41-2.7-.42-.26,0-.5.12-.46.44.04.33.34.34.57.32.87-.09,1.73-.22,2.59-.34ZM405.03,109.18c1.17-.07,1.96-.61,2.26-2.04-.99.66-1.39,1.62-2.26,2.04ZM406.66,164.43c.26-.2.95.21.96-.51,0-.37-.3-.8-.8-.67-.45.12-1.11.17-1.1.81,0,.49.52.33.94.37ZM402.92,146.02c-.38.06-.66.15-.51.58.14.38.27.79.8.74.32-.03.68-.19.61-.51-.1-.44-.41-.8-.9-.8ZM407.59,106.87c.83-.15,1.14-.47,1.28-1.13-.65.15-.92.54-1.28,1.13Z"/>
      <path class="cls-3" d="M375.46,62.66c-.96-.08-1.92-.16-2.88-.25,0-.44.03-.86.14-1.3.33-1.27.86-2.51.71-3.87h0c.62.16.43,1.69,1.24,1.03.69-.56,1.64-1.4,1.44-2.49-.29-1.65-.65-3.35-2.15-4.45-.23-.17-.6-.15-.71-.5-.94-3.09-2.52-5.77-4.96-7.92-3.39-1.49-6.41-.45-9.32,1.36-.38.24-.7.58-1.04.87-2.04-.43-2.97,1.4-4.37,2.22-1.71,1.01-2,2.74-1.04,4.44-1.07,2.25-2.09,4.52-2.53,6.99-.04.03-.1.06-.1.08.01.07.05.14.08.21-.02.38-.05.77-.07,1.15-.69-.13-.41-.69-.48-1.09-.04-.25-.03-.55-.37-.53-.16,0-.36.19-.44.34-.82,1.48-1.01,3.13-.97,4.77.02.89.66,1.08,1.36.5.58-.48,1.11-1.02,1.66-1.53,1.3.52,2.5,1.3,4.05.74.6-.21.52,1.15,1.37,1.06-.41.32-.83.65-1.24.97,0,0,.03-.02.03-.02-.33-.02-.7.09-.71.4,0,.27.39.15.62.18.14-.03.28-.05.41-.08,1.81-.39,3.42-1.65,5.41-1.25-2.01,2.6-4.84,3.99-7.79,5.3-.27-.91.5-1.38.81-2.11-.79-.02-1.49.28-1.98.69-1.74,1.46-4.18,1.33-5.92,2.8-.65.55-.77-.2-.9-.69-.13-.47-.22-1.1-.82-1.1-.6,0-.96.46-1.06,1.08-.09.54-.49.86-.87,1.19,0,0,.03-.01.03-.01-.08.03-.17.05-.25.06-1.2.91-1.34,2.24-1.31,3.57.07,3.22.85,6.32,1.65,9.42-.1.33-.08.73-.61.92-1.24-2.54-1.51-5.3-1.63-8.09-.04-.91-.05-1.82-.08-2.73-.05-1.64-1.45-3.02-.82-4.82-.95.69-1.6,1.6-2.86,2.14.98-2.47,1.9-4.68,2.74-6.93.89-2.36.73-5,1.89-7.3.11-.22.09-.46-.35-.34-.91.24-.29-.57-.5-.81.52-1.18,1.04-2.37,1.55-3.55.09-.22.23-.48.19-.68-.22-1.01-2.89-2.97-4.11-3.08-.25.02-.57-.06-.74.06-1.68,1.22-1.81-.18-2.22-1.25-2.29-5.89-3.15-12-2.81-18.29.06-1.15.32-2.3.66-3.4.31-1.01.44-1.84-.17-2.85-.66-1.1.49-.92,1.01-.95,7.6-.43,14.78.89,21.29,5.07.96.62,1.94,1.22,2.92,1.83.41-.85-.69-1.52-.12-2.44,1.55.98,2.8,2.38,3.43,3.9.79,1.9,2.09,1.17,3.29,1.28.17.02.35-.16.54-.22.48-.16,1.28.21,1.38-.53.08-.59-.66-.55-1.07-.75-.61-.29-.4-.63.06-.83.61-.26,1.26-.45,1.91-.19,2.08.82,3.95,0,5.79-.8,3-1.28,6.05-1.6,9.28-1.03,1.89.34,3.89,1,5.76-.37.53-.38,1.32-.5,2.05-.36-.11.19-.23.38-.34.57-.66.09-.87.59-1.02,1.13-.55.35-.81.83-.76,1.58.52-.45.72-.95.91-1.46.4-.34.82-.66.9-1.23.23-.09.47-.18.7-.27.16.8-.77.98-.95,1.67,2.14.49,4.03-.39,5.84-1.17,1.91-.82,2.49-3.17,4.27-4.4.42.74.03,1.31-.08,1.9,0,.13-.04.35.02.39.18.1.19-.1.24-.21,1.54-1.72,3.11-3.42,4.63-5.17,3.64-4.18,8.39-6.16,13.71-7.02.89-.14,1.76-.45,2.85-.3-1.2,1.2-.58,2.29.04,3.42,1.4,2.5,1.67,5.36,2.46,8.05,1.55,5.28,2.22,10.66,2,16.14-.01.35.68,1.49-.68,1.27-.51-.52-1.18-.54-1.79-.38-.75.19-1.84.51-1.64,1.36.16.71-.16,1-.36,1.45-.23.51-.92.92-.36,1.59.52.61,1.2,1,1.99.82.79-.18,1.57-.29,2.38-.25-.63,1.22-1.93,1.44-3,2.01-.66.35-1.41.53-2.12.78-.62-.32-1.34-.5-1.74-1.13-.4-.62-.6-1.48-1.66-.79-.12.08-.86-.17-1.15-.68-.93-1.61-1.93-3.18-2.93-4.75-.09-.14-.26-.63-.48-.26-.7,1.21-1.25.02-1.85-.06-.01-.04-.01-.09-.03-.12-.01-.02-.06-.02-.09-.03.05.04.09.09.14.13-.28,1.2-1.04.12-1.53.32-.11-.08-.22-.16-.33-.24-.02.04-.05.09-.07.13.14.03.28.06.42.09-.77.88-1.42,1.78-.98,3.07.13.39-.26.59-.62.69-.9-.51-1.12-1.84-2.35-1.96l.02.03s.07-.08.06-.11c-.01-.07-.05-.14-.08-.2-.56-1.16-1.87-1.29-2.75-2.02-1.5-1.25-3.02-2.54-5.14-2.52-1.04,0-2.12.33-3.12.16-2.34-.38-4.21.53-5.13,2.75-.26.62-.55,1.22-.76,1.85-.92,2.69-1.74,5.43-.97,8.3.63,2.32,1.05,4.72,2.25,6.87.22.4.76,1.03.08,1.4-.57.31-1.29.94-1.95-.04-.35-.53-1.04-.56-1.52-.29-1.46.81-2.91.45-4.38.15-.48-.1-.52.37-.78.56-1.54-.14-2.96.93-4.55.45-.17-.05-.43.21-.64.33-.41.52.5.45.38.85ZM371.31,35.97s.06.04.09.06c-.03-.02-.07-.03-.1-.05-.24-.79-.7-1.32-1.83-1.58.64.81,1.09,1.36,1.84,1.57ZM401.99,32.93c-.29-.38-.63-.36-1.12-.06.45.04.77.07,1.1.1,1,1.38,2.09.03,3.38.22-1.26-.64-2.31-.32-3.35-.26ZM416.56,21.99c-1.63,1.31-2.8,3.04-4.18,4.57-.33.37-.26.69.05,1.06.4.49.67.22.99-.06.38-.33.86-.6,1.12-1,.45-.71.89-.21,1.35-.07,0-1.57.37-3.03.67-4.51.03-.03.06-.06.09-.1-.03.04-.05.07-.08.11ZM346.81,35.69c-2.38-2.46-5.22-4.13-8.38-5.26-.65-.23-1.37-.32-2.07-.39-.38-.04-.84-.03-.81.6.1,1.94.31,3.88.72,5.78.87,4.1,2.63,7.88,4.28,11.76.04-.51-.09-1.2.14-1.36.91-.64.84-1.61,1.07-2.48.32-1.21.41-2.54,2.13-2.68.5-.04.45-.54.3-.98-.41-1.23-1.11-2.2-2.1-3.05-.96-.83-1.98-1.7-2.45-3.27,2.52.8,4.45,2.94,7.17,1.34ZM421.55,35.18c-.87,1.24-1.38,2.32-2.61,2.67-.5.14-.56.54-.51.96.05.5.46.69.85.72.84.06,1.49.41,2.04,1.24.33-1.88.53-3.55.23-5.6ZM398.58,28.39c-1.65.06-2.95.36-4.03,1.27-.29.25-.69.57-.14.95.31.21,1,.55,1.03.25.23-1.78,1.92-1.59,3.13-2.46ZM361.55,39.49c.91,1.07,2,1.88,3.4,2.18-.8-1.24-1.85-2.1-3.4-2.18Z"/>
      <path class="cls-1" d="M375.46,62.66c.12-.39-.79-.32-.38-.85.2.03.45,0,.58.1,1.53,1.34,2.96-.32,4.45-.17.36.04.27-.43.16-.72.26-.18.3-.65.78-.56,1.47.3,2.92.66,4.38-.15.48-.27,1.17-.24,1.52.29.66.99,1.38.36,1.95.04.68-.37.14-1-.08-1.4-1.2-2.15-1.62-4.54-2.25-6.87-.77-2.87.05-5.6.97-8.3.21-.63.5-1.24.76-1.85.92-2.22,2.79-3.14,5.13-2.75,1,.16,2.08-.15,3.12-.16,2.12-.01,3.64,1.27,5.14,2.52.88.73,2.2.86,2.75,2.02-.06.08-.13.15-.19.23.07.03.14.05.21.08,0,0-.02-.03-.02-.03.02.59-.16,1.25.18,1.76,1.7,2.49,3.17,5.19,5.9,6.79l-.02-.02c.13.39-.27.93.32,1.2.61.92.31,1.7-.35,2.43-1.05,1.17-2.41,1.57-3.93,1.57-.14-1.78-1.48-2.98-2.15-4.51.11-.46.05-.89-.11-1.33-1.43-3.81-4.24-5.91-8.15-6.65-.99-.19-1.98-.27-2.91.39-4.16,2.95-5.79,8.8-3.81,13.53.3.71.7.7,1.25.64.8.93,1.42-.14,2.12-.22,1.95-.24,3.89-.59,5.83-.9,1.06-.04,2.12-.18,3.17-.11,1.48.09,1.59-.53,1.15-1.72-.38-1.03-.58-2.13-.88-3.2-.16-.56.1-.73.6-.72,1.11,1.29,1.48,2.89,1.42,4.49-.04,1.25.36,1.73,1.51,1.76.31.76,1.53,0,1.71.91-1.14,0-2.24-.04-3.35.01-.71.04-1.77-.5-2.05.29-.26.73,1.08.66,1.41,1.28-1.33.16-2.54-.55-3.85-.55-1.69-.01-3.35.35-5.09.03-1.31-.24-2.49.65-3.49,1.54-.34.3-.6.65-1.05.84-1.39.58-1.54.96-.31,1.82,1.29.91,2.39,1.99,3.59,2.98,1.96,1.63,4.45,1.38,6.72,1.81,3.69.7,7.09,1.85,9.46,5,.12.16.2.35.29.53l.02-.02c-1.03.13-.42.73-.25,1.07,1.03,2.11,1.66,4.29,1.74,6.67.02.69-.55,1.44.09,2.23,1.48-2.53.22-4.82-.28-7.14,1.32.04,2.79,1.49,3.22,3.19.53,2.13.28,4.31.32,6.47,0,0,.02-.03.02-.03-.38.27-.46.55-.05.87.03.04.06.09.09.14-.26.28-.53.55-.79.83-.48-.07-.52.46-.83.61l-.26.33.04-.02c-.73.48-1.72.58-2.14,1.53-.07.15-.5.29-.66.21-.39-.18-.13-.52-.04-.78.31-.85.65-1.7.96-2.55.13-.35.48-.76-.05-1.05-.52-.28-.78.18-.92.52-.38.95-.58,2.03-2.05,1.64-.16-.04-.39.34-.62.39-.41.1-.08,1.19-.83.67-.52-.36.16-.77.17-1.18.06-2.08.08-4.16-.34-6.2-.51-2.46-1.25-4.85-2.48-7.06-.28-.51-.8-.88-1.43-1.55-.02.94-.13,1.57-1.06,1.14-.31-.15-.74.02-.87.41-.14.4.25.49.5.63.87.52.69.86-.16,1.16-.7.25-.82.58-.47,1.37.72,1.65.2,3.36-.14,5.04-.06.32-.43.37-.71.49-2.56,1.19-3.4,2.67-3.14,5.43.02.2.03.41,0,.61-.17.98-.09,2.21-1.76,1.28-.99-.55-2.12-.88-3.3-.24-.69.37-1.3-.19-1.78-.56-.93-.71-1.52-.4-1.91.48-.52,1.16-1.44,1.71-2.6,1.77-.79.04-1,.38-1.16,1.06-.11.48-.16,1.17-.99,1.1-.66-.05-1.17-.3-1.45-.92-.12-.27-.22-.56-.31-.85-.23-.74-.51-1.69-1.28-1.71-.77-.02-.87.99-1.01,1.65-.18.87-.69,1.07-1.27.57-1.19-1.03-2.45-1.85-3.96-2.38-1.01-.35-1.35-1.59-1.93-2.46-1.17-1.76-2.28-3.57-3.37-5.38-.31-.5-.66-1.05-.39-1.71,1.43,1.18,2.85,2.38,4.3,3.54.55.44,1.21,1.09,1.84.94,2.45-.6,4.99-1.15,6.95-2.86.72-.63,1.42-1.15,2.3-1.46,1.53.19,2.68-.81,4.01-1.27.54-.13,1.18,0,1.54-.58.8-.1,1.53-.38,2.2-.82.29-.12.58-.24.88-.36,2.16-.35,3.71-1.61,5-3.3-.31-.29-.66-.11-.98-.06-2.69.46-5.37.88-8.11,1-1.46.06-2.91-.39-4.36,0-4.55,1.21-9.17,1.81-13.88,1.71-.77-.02-1.56.03-2.32.63.44.16.72.25,1,.35-.45.75.61,1.77-.43,2.42-1.17-.52-2.38-.87-3.85-.66.61-1.17,1.55-1.47,2.89-1.79-1.34-.46-2.37-.72-3.03.23-1.1,1.58-2.02,3.29-2.32,5.24-.31,2.06-.24,4.1.24,6.14.08.35.4.93-.34,1.08-.66-2.42-1.42-4.8-1.75-7.31-.28-2.13.02-4.14.85-6.07.52-1.21,1.73-1.73,2.83-2.13,1.31-.48,2.74-.62,4.12-.89.24-.05.53-.09.64.21.11.31-.15.46-.36.58-.59.32-1.18.62-1.78.93.21.33.39.31.67.2.95-.37,1.65-.6,2.89-.03,1.48.68,3.56.58,5.29-.24,2.15-1.02,4.27-2.1,5.81-4.01.19.05.39.07.57.15,1.81.79,5.16-1.39,4.85-3.34-.22-1.36.17-1.43,1.28-1.39,1.7.06,2.1-.57,1.74-2.15-.06-.25-.1-.56-.13-.85-.13-1.26-.57-2.33-1.8-2.89-3.82-1.73-7.45-1.17-10.93.98-2.55.37-4.29-.82-5.47-2.98.9-.04,1.83.32,2.79.47.72.11,1.55.57,2.15-.31ZM408.59,84.84c-.41-4.92-1.01-7.29-2.21-8.48.51.93.71,1.95,1.01,2.94.65,2.12.37,4.33.65,6.48-.06.9-.07,1.78.86,2.28.56-2,.54-2.24-.31-3.23ZM392.35,70.73c2.81.42,5.26.78,7.7,1.14-2.27-1.25-5.7-1.75-7.7-1.14Z"/>
      <path class="cls-1" d="M368.3,42.92c2.44,2.15,4.02,4.83,4.96,7.92.11.35.48.33.71.5,1.49,1.1,1.86,2.8,2.15,4.45.19,1.09-.76,1.94-1.44,2.49-.81.66-.63-.88-1.24-1.02,0-1.45,0-2.9,0-4.36-.18,1.45-.67,2.92,0,4.34.15,1.36-.37,2.6-.71,3.87-.12.44-.15.86-.14,1.3-.75-.04-.98-.63-1.25-1.18.23-1.72-.34-3.29-1.03-4.8-.92-2.01-4.07-4.08-5.71-3.79-2.55.44-4.5,2-6.48,3.51-.38.29-.16.43.04.69.37.48.48.06.6-.16.46-.75,1.18-.72,1.88-.62.84.12-.1.43.04.64-.31.49-.27,1.04-.27,1.58.19.7,0,1.4,0,2.1-.01,1.55-1.22,1.38-2.15,1.42-1.08.04-.34-.88-.54-1.33-.19-.43.19-1.01-.32-1.39.17-.66.34-1.31.54-2.11-1.65,1.46-2.83,3.04-3.01,5.12-.09,1.03-.68.96-1.34.93-.78-.03-1.4-.29-1.33-1.26.08-1.15.44-2.28,1.17-3.07.95-1.03,1.28-2.25,1.5-3.49.46-2.64,2.23-4.47,3.79-6.38,1.92-2.35,4.38-4.06,7.45-4.74.77-.17,1.45-.77,2.17-1.17ZM367.58,50.12c-1.03-.94-2.21-1.7-3.43-1.52-3.49.52-7.3,3.71-7.66,8.08.9-1.62,1.98-2.79,3.2-3.71,1.92-1.44,3.67-3.6,6.6-2.45.39.16.79-.06,1.29-.41Z"/>
      <path class="cls-1" d="M406.77,46.11c.36-.1.75-.3.61-.69-.44-1.29.21-2.19.98-3.07v.02c.48-.19,1.23.89,1.52-.32l-.02.02c.61.07,1.15,1.26,1.85.06.21-.37.39.12.48.26,1,1.57,2,3.14,2.93,4.75.29.51,1.03.76,1.15.68,1.07-.68,1.27.17,1.66.79.4.63,1.13.81,1.74,1.13-.3.48,0,.86.22,1.26,1.28,2.44,2.07,5.14,3.78,7.36.07.1.03.28.04.43-.46.03-.56-.72-1.14-.5-.19.93-.2,1.82.54,2.56-.07.1-.13.2-.2.3-.31.16-.42.32.01.46,0,0,0,.06,0,.06,0,.95-.28,1.72-1.32,1.98-1.08.07-1.57-.69-2.09-1.46-.24-.37-.6-.74-1.12-.6-.38.11-.25.49-.28.78-.2,1.95-.33,2.01-2.17.85-.29-.6-1.14-1.4-.44-1.82,1.45-.88.89-2.07.38-2.79-1.6-2.27-2.67-4.84-4.19-7.14-.46-.7-1.01-1.09-1.87-.89l.03.02c.1-.33.05-.6-.33-.7-.92-1.26-2.54-2.01-2.76-3.78ZM416.32,50.82c-.07-.03-.15-.07-.22-.1l.13.19c.04.27.12.5.44.51.05,0,.16-.13.16-.2,0-.35-.25-.38-.51-.4ZM418.12,53.33c-.05-.38-.08-.58-.33-.59-.15,0-.31.08-.24.26.07.16.19.32.34.42.05.04.22-.09.23-.09ZM416.87,52.01c.14.14.21.27.32.32.19.1.26-.08.25-.2-.01-.11-.11-.25-.21-.29-.07-.03-.2.09-.36.17Z"/>
      <path class="cls-1" d="M346.4,164.88c1.67,1.6.6,3.11-.37,4.69.89-.02,1.09-.44,1.25-1.02.12-.44.42-.83.63-1.25.68.65,1.41-.17,2.12.07.85.28,1.12.66.56,1.48-.27.4-.41.89-.38,1.48.36-.56.73-1.12,1.08-1.69.26-.42.16-1.09,1.08-.89.96.22.5.84.51,1.32.57.09.63-.55,1.05-.59.66.6.31,1.71,1.19,2.37v-2.66c.54.16.95-.23,1.42-.35.67-.18,1.35-.03,1.8.34.44.36.18,1.03-.03,1.55-.13.33-.26.65-.38.98-.16.09-.32.17-.48.26.05.06.1.12.15.18.11-.15.21-.3.32-.44.65-.64,1.45-1.16,1.48-2.23.01-.6.47-.91.99-.94.61-.03.43.57.53.91.11.38.03.82.17,1.18.08.21-.55,1.25.57.61.28-.16.47.41.59.74.33.89.67,1.76,1.02,2.66.86-.18.79-1.06,1.29-1.45.04,1.73-.21,3.42-.91,5-.71,1.59-1.86,2.62-3.7,2.64-1.87.03-3.71.2-5.52.76-1.24.38-2.46.12-4.03-.66,1.69-.34,2.69-1.1,3.3-2.36.76-1.58.59-1.96-1.12-2.06-1.01-.06-2.02-.03-3.03-.02-1.53.01-1.53.02-3.38-.94.7-.33,1.5,0,2.02-.57.19-.21.51-.14.56.19.18,1.22,1.13.71,1.79.81.82.12,1.46-.09,1.81-.97.39-.96-.06-1.81-.73-2.07-1.75-.68-3.52-1.54-5.49-1.2-.92-1.92-.82-3.91.24-5.87ZM358.49,177.97c1.46.14,2.03-.69,2.3-2.01.17-.84,0-1.07-.79-.78-.85.31-1.71.62-2.56.94-.3.11-.83-.04-.82.46,0,.39.2.79.57,1.02.39.24.81.42,1.3.38Z"/>
      <path class="cls-3" d="M376,65.48c3.48-2.15,7.11-2.71,10.93-.98,1.22.55,1.66,1.63,1.8,2.89.03.29.07.6.13.85.37,1.58-.04,2.21-1.74,2.15-1.11-.04-1.5.02-1.28,1.39.31,1.95-3.04,4.13-4.85,3.34-.18-.08-.38-.1-.57-.15-1.19-.44-1.7-1.41-2.02-2.56-.09-.32.07-.87-.76-.75-2.74.4-4.04-1.4-3.02-4.04.31-.81.77-1.52,1.38-2.14Z"/>
      <path class="cls-1" d="M354.75,96.52c-.85-.36-1.15-1.34-1.94-1.76.79-2.56,2.18-4.97,1.97-6.93.11,2.52,2.39,4.78,4.22,7.28-.1-1.02-.6-1.86-1.08-2.72-.69-1.24-1.25-2.45-.46-3.93.3-.56.19-1.39.16-2.08-.09-1.76.12-3.47.65-5.17-.03,2.99-.36,5.99.29,8.95-.35,1.65,1.31,4.39,2.25,5.57,1.17,1.46,2.79,1.85,4.21,2.5,2.42,1.11,3.15,2.81,3.62,5.25.23,1.18.15,2.42.55,3.56-6.01-1.85-11.13-4.93-14.43-10.5Z"/>
      <path class="cls-1" d="M342.23,84.89c-.8-3.1-1.57-6.2-1.65-9.42-.03-1.33.11-2.66,1.31-3.57.06.07.11.13.17.2.03-.09.05-.17.08-.26,0,0-.03.01-.03.01.71.12.6.67.63,1.17.12,1.96.24,3.92.4,5.88.04.49.19.98.31,1.58,1.06-1.81-.46-4.07,1.23-5.67.43.61-.24,1.62.56,1.78.85.17,1.23-.76,1.61-1.39.59-.98,1.52-.11,2.24-.46.1-.05,0,.8-.14,1.18-1,2.84-1.01,5.82-1.27,8.76-.05.54-.09,1.12.48,1.6.32-1.33-.15-2.81,1.12-4.28.34,3.35.06,6.27-.51,9.23-.78-.44-.76-1.58-1.51-2.1-.41-.43-.27-1.17-1.17-1.71.58,1.21.25,2.38,1.15,3.21.04.39.12.79-.55,1.38-.3-3.26-3.28-4.55-4.46-7.1Z"/>
      <path class="cls-3" d="M360.66,56.7c-.14-.21.8-.52-.04-.64-.7-.1-1.43-.13-1.88.62-.13.21-.23.64-.6.16-.2-.26-.42-.4-.04-.69,1.98-1.51,3.93-3.07,6.48-3.51,1.64-.28,4.8,1.78,5.71,3.79.69,1.51,1.26,3.08,1.03,4.8-.09.29-.24.74-.51.66-1.4-.4-2.73.66-4.13.11-.74-.29-1.47.13-2.19.29-1.96.43-3.92.9-5.86,1.44-.56.15-.76.13-.97-.45-.48-1.39-.96-2.75-.3-4.21.51.37.14.96.32,1.39.2.45-.54,1.38.54,1.33.93-.04,2.14.13,2.15-1.42,0-.7.19-1.4,0-2.1.53.38,1.03.39,1.43-.17.19-.27.5-.53.28-.93-.33-.61-.88-.56-1.44-.48Z"/>
      <path class="cls-3" d="M409.84,50.58c.86-.2,1.41.19,1.87.89,1.52,2.31,2.59,4.87,4.19,7.14.5.71,1.07,1.9-.38,2.79-.7.42.15,1.23.44,1.82-.29-.06-.74-.27-.86-.16-.91.91-1.68.17-2.48-.14-1.11-.97-2.47-.88-3.78-1.13-.06.84,1.73.96.42,1.89-2.04-.45-4.05-1-5.96-1.87-.33-.62-1.67-.55-1.41-1.28.28-.79,1.34-.25,2.05-.29,1.1-.06,2.21-.01,3.35-.01-.18-.92-1.4-.15-1.71-.91.26-.52.85-.83.95-1.45,1.52,0,2.88-.4,3.93-1.57.66-.73.96-1.51.35-2.43-.12-.4.1-.88-.32-1.2,0,0,.02.02.02.02.03-.79-.58-1.38-.67-2.13Z"/>
      <path class="cls-1" d="M408.06,175.65c0-.5.24-1,.61-1.16.97-.42,1.74.03,2.34.84.69-1.02,1.47-1.06,2.25-.14.23.27.44.51.7.26,1.2-1.14,2.06-.83,2.69.71.3-1.44.97-1.75,2.26-1.36.98.29,2.23,1.1,2.79-.95.17-.62.76-1.91,1.87-2.24-.29,1.28-.13,2.56.19,3.8.29,1.11-.58,1.64-.98,2.41-.62-.35-1.58-.04-1.87-1.07-.1-.36-.6-.58-1.02-.52-.47.07-.39.54-.4.87-.02.62-.51.87-.9,1.14-.92.66-3.52.53-4.47-.18-.29-.22-.56-.5-.9-.12-1.32,1.5-1.45.29-1.67-.73-.07-.33-.17-.66-.29-1.15-.22.47-.36.84-.55,1.18-.23.41-.23,1.12-.88,1.08-.55-.03-.74-.62-.99-1.05-.3-.52-.26-1.2-.78-1.61Z"/>
      <path class="cls-1" d="M421.17,80.11c-.21,1.23-.42,2.45-.65,3.68-.04.19.05.56-.34.52-.25-.03-.55-.13-.46-.45.48-1.86-.12-1.6-1.13-.6-.01.01-.15-.1-.23-.16.42-1.82.66-3.64.03-5.46v.02c.02-.54.24-1.12-.3-1.54v.02c.07-.69-.12-1.29-.64-1.76-.68-1.2-.27-2.54-.43-3.8-.19-1.54-1.02-2.91-1.05-4.48h0c1.07.37,1.59,1.08,1.97,2.2.9,2.66,1.87,5.29,2.08,8.04.54-2.99.11-6-.45-9l.07-.06c1.27,1.69,1.19,3.73,1.46,5.68.25,1.82-.3,3.7.28,5.51.22.59,0,1.12-.21,1.65Z"/>
      <path class="cls-1" d="M404.49,185.46c1.3-.14,2.45-.3,3.54-.91.67-.38,1.12.49,1.48,1.01.75,1.1,1.78,1.53,3.07,1.64,1.16.09,2.07-.34,2.52-1.3.51-1.09,1.2-1.04,2.08-.74.45.16,1.02.31,1.24-.15.39-.79.62-.95,1.28-.22.33.37.51-.27.71-.51,1.02-1.23,1.59-.11,2.32.42.9.66.19,1.45-.15,1.56-3.35,1.05-6.61,3.01-10.27,1.97-1.65-.47-3.25-1-4.97-1.13-.45-.03-.89-.19-1.33-.31-.66-.18-1.11-.61-1.52-1.32Z"/>
      <path class="cls-1" d="M371.59,151.5c.58-.94,1.32-1.78,1.65-2.86.17-.57.68-.86,1.12-1.19.95-.72,1.92-1.41,2.89-2.11,1.04,1.18-.03,2.4.07,3.61,0,.05-.32.18-.5.19-.46.04-1,.04-1.14.54-.19.69.76.49.92.96-.39.72-1.44.48-1.78,1.23.16.32.44.23.67.24.63.04,1.14.38,1.19.95.05.58-.55,1.09-1.03,1.13-2,.18-3.82,1.14-5.82,1.3.2-.65.36-1.33.86-1.84.1-.1.21-.21.31-.31,0,0-.03.02-.03.02.15.01.31,0,.44.05.62.23,1.29.5,1.65-.32.39-.9-.43-.87-.94-1.09-.21-.09-.35-.32-.53-.49Z"/>
      <path class="cls-1" d="M390.12,144.59c.73-.72,1.69-1.01,2.6-1.39,1.15-.48,1.67.47,2.15,1.16,1.17,1.68,1.98,3.53,2.21,5.59-1.02-.25-2.03-.56-3.07-.73-3.38-.54-3.95-1.19-3.89-4.63Z"/>
      <path class="cls-1" d="M337.64,49.6c1.22.1,3.89,2.07,4.11,3.08.05.2-.09.47-.19.68-.51,1.19-1.03,2.37-1.55,3.55-1.58-1.17-3.57-1.61-5.1-2.88-.62-.51-1.31-.95-1.65-1.95,1.21.32,2.36.48,3.08,1.48.43.6.95.9,1.51.47.62-.48.98-1.23.42-2-.55-.75-1.12-1.44-.63-2.43Z"/>
      <path class="cls-1" d="M424.81,46.96c-.81-.05-1.59.07-2.38.25-.8.18-1.47-.21-1.99-.82-.57-.67.13-1.09.36-1.59.2-.45.53-.74.36-1.45-.19-.85.89-1.17,1.64-1.36.62-.15,1.28-.14,1.79.38.21.41.28.83.27,1.3-.04,1.5.11,1.59,1.47.91.44-.22.87-.46,1.58-.83-.29,1.4-1.1,2.02-2.02,2.55-.6-.17-.89.2-1.13.65h.04Z"/>
      <path class="cls-1" d="M402.24,172.48c2.07-.69,3.42.95,5.07,1.61.42.17.35.67.2,1.08-.13.37-.17.71.37.75-.27.91-.96,1.94-1.73,1.74-.88-.23-.41-1.57-.65-2.63-.61.92-1.11,1.67-1.61,2.42-.16.23-.24.6-.65.48-.33-.09-.46-.39-.56-.67-.37-1.05-.27-2.16-.2-3.22.04-.6-.15-1.05-.25-1.57Z"/>
      <path class="cls-1" d="M354.11,98.34c.59.06.51.58.57.92.85,4.6,3.27,8.14,7.13,10.72.21.14.42.27.66.43-.75.7-1.11.14-1.5-.14-1.32-.94-2.51-2.01-3.48-3.32-.24-.32-.46-.66-.9-.73-1.77-2.33-2.6-4.96-2.48-7.88Z"/>
      <path class="cls-1" d="M352.53,51.8c-.96-1.7-.67-3.43,1.04-4.44,1.4-.82,2.33-2.65,4.37-2.22-1.6,1.81-3.2,3.62-4.8,5.43-.44.12-.35.48-.36.79.08.24-.01.38-.25.45Z"/>
      <path class="cls-1" d="M350.68,62.7c-.55.51-1.08,1.05-1.66,1.53-.7.58-1.34.4-1.36-.5-.04-1.64.15-3.29.97-4.77.09-.15.29-.33.44-.34.34-.02.32.29.37.53.07.4-.21.96.48,1.09.25.82.51,1.64.76,2.46Z"/>
      <path class="cls-3" d="M423.26,70.66c.13-1.24-.24-2.51.23-3.76,1.13,3.36,1.35,8.65.41,10.53-.74-.6-.76-1.35-.56-2.17.24-.2.22-.45.15-.72-.14-1.3.32-2.65-.24-3.92l.02.04Z"/>
      <path class="cls-3" d="M413.69,90.11c.26-.28.53-.55.79-.83.54.3.25,1.05.74,1.39-.06.9-.07,1.81-.2,2.7-.12.81-.7,1.29-1.46,1.54,0,0,0,.04,0,.04.04-.29-.18-.19-.32-.21-.03-.41-.06-.83-.09-1.24.18-1.13.36-2.27.55-3.4Z"/>
      <path class="cls-1" d="M409.26,63.69c1.31-.94-.48-1.06-.42-1.89,1.31.25,2.67.16,3.78,1.13-.07.48.64.67.35,1.32-.49,1.13-1.02,1.32-1.98.53-.52-.43-.96-1.04-1.74-1.08Z"/>
      <path class="cls-1" d="M417.54,81.63c.08-1.54-.73-2.87-1.03-4.32-.08-.39-.24-.77-.29-1.16-.05-.42-.25-.98.27-1.21.53-.23.58.38.82.66.08.09.27.09.41.13.12.13.24.26.37.39,0,0-.01-.02-.01-.02.11.51-.16,1.1.31,1.54,0,0,0-.02,0-.02.02.74.08,1.48.04,2.21-.03.71.05,1.51-.88,1.79Z"/>
      <path class="cls-3" d="M423.13,60.86c-.73-.75-.72-1.64-.54-2.56.58-.23.69.52,1.14.5,0,0,.08.12.08.12.08.42.21.81.69.94.67.93,1.35,1.86,2.12,2.92-1.51-.2-2.48-1.11-3.5-1.91Z"/>
      <path class="cls-1" d="M416.12,130.99c-1.21-2.34-1.47-4.86-1.18-7.47.46,2.48.85,4.97,1.18,7.47Z"/>
      <path class="cls-1" d="M403.23,64.74c-2.31-.66-4.67-.59-7.03-.55,2.42-.72,4.82-1.17,7.03.55Z"/>
      <path class="cls-3" d="M421.61,63.65c1.04-.26,1.31-1.03,1.32-1.98.72.58.94,1.45.98,2.26.03.59-.82.96-.83,1.7,0,.13-.37-.1-.5-.33-.31-.56-.65-1.11-.98-1.66Z"/>
      <path class="cls-3" d="M421.17,80.11c.22-.53.43-1.06.21-1.65.09-1.85.18-3.71.27-5.56.18-.7.29-1.39-.17-2.03-.01-.24-.02-.48-.03-.72.19,0,.39,0,.58,0,.03.32.05.64.08.97-.14.71-.23,1.42.23,2.06,0,.43,0,.86,0,1.29-.51,1.93-.53,3.92-.65,5.9-.23.02-.41-.05-.51-.27Z"/>
      <path class="cls-1" d="M421.68,80.38c.12-1.97.14-3.96.65-5.9.85,2.08.66,4.05-.65,5.9Z"/>
      <path class="cls-1" d="M364.66,170.8c-.11-.79,0-1.6-.26-2.39-.43-1.31,0-1.68,1.25-1.07-.14,1.21.08,2.51-.99,3.46Z"/>
      <path class="cls-1" d="M360.64,64.7c-1.99-.39-3.6.86-5.41,1.25-.14.03-.28.05-.41.08.03-.19.06-.39.09-.58,0,0-.03.02-.03.02,1.74-.48,3.34-1.41,5.17-1.61.92-.1.96-.02.6.84Z"/>
      <path class="cls-1" d="M422.02,70.16c-.19,0-.39,0-.58,0-.41-1.59-.82-3.19-.44-4.88.82,1.52,1.07,3.17,1.02,4.89Z"/>
      <path class="cls-3" d="M417.54,81.63c.93-.28.85-1.08.88-1.79.03-.74-.02-1.48-.04-2.21.63,1.82.39,3.64-.03,5.46-.73-.23-.43-1.03-.81-1.46Z"/>
      <path class="cls-1" d="M413.15,93.5c.03.41.06.83.09,1.24.07.12.12.29.32.21,0,0,0-.04,0-.04-.53.72.6,1.87-.62,2.41-.54-.71-.21-1.62-.56-2.38.09-.57.37-1.04.76-1.44Z"/>
      <path class="cls-1" d="M423.49,74.55c.07.26.09.52-.15.72-.71-2.13-.78-4.32-.8-6.79.71.8.11,1.66.72,2.18,0,0-.02-.04-.02-.04.11,1.31-.28,2.64.24,3.92Z"/>
      <path class="cls-1" d="M349.52,179.26c-1.35-.06-2.3-.41-3.18-1.12q1.66-.35,3.18,1.12Z"/>
      <path class="cls-3" d="M347.24,90.62c-.9-.83-.57-2-1.15-3.21.9.54.76,1.28,1.17,1.71,0,.5-.01,1-.02,1.49Z"/>
      <path class="cls-1" d="M415.22,90.66c-.48-.34-.19-1.08-.74-1.39-.03-.05-.06-.09-.09-.14.02-.29.03-.58.05-.87,0,0-.02.03-.02.03.42-.14.36-.87,1.12-.77-.42,1.03-.12,2.1-.33,3.14Z"/>
      <path class="cls-1" d="M410.49,74.61c.57.49.96,1.12,1.3,1.79.08.16.23.38,0,.52-.25.14-.55.03-.59-.23-.09-.75-.78-1.29-.68-2.09,0,0-.02.02-.02.02Z"/>
      <path class="cls-1" d="M411.29,103.45c-.34-.78.54-1.12.64-1.74-.09.62.66,1.56-.64,1.74Z"/>
      <path class="cls-1" d="M412.36,100.39c.09-.37-.21-.84.29-1.1.42-.03.48.23.46.57-.02.51-.43.45-.75.53Z"/>
      <path class="cls-1" d="M409.57,75.83c.58.09.88.39.81,1.14-.62-.24-.74-.68-.79-1.16,0,0-.02.02-.02.02Z"/>
      <path class="cls-3" d="M418.09,76.13c-.12-.13-.24-.26-.37-.39-.37-.4-.17-.92-.29-1.37.52.47.71,1.07.65,1.76Z"/>
      <path class="cls-3" d="M424.77,46.96c.24-.45.53-.82,1.13-.65-.37.22-.53.82-1.13.65Z"/>
      <path class="cls-1" d="M419.3,66.69c-.68-.01-.67-.45-.57-1.01.49.21.63.55.56,1.02h0Z"/>
      <path class="cls-1" d="M424.5,59.85c-.48-.13-.61-.52-.69-.94.54.09.6.52.69.94Z"/>
      <path class="cls-1" d="M422.33,73.19c-.46-.64-.36-1.35-.23-2.06.47.64.39,1.35.23,2.06Z"/>
      <path class="cls-1" d="M421.48,70.87c.46.64.35,1.34.17,2.03-.46-.64-.28-1.34-.17-2.03Z"/>
      <path class="cls-1" d="M422.49,68.19c-.22-.55-.29-.92-.04-1.39.25.44.26.82.04,1.39Z"/>
      <path class="cls-1" d="M389.52,28.06c.11-.19.23-.38.34-.57.26-.06.33.12.39.32-.23.09-.47.18-.7.27l-.03-.03Z"/>
      <path class="cls-1" d="M365.86,167.13c-.2-.31.07-.45.23-.64.12.28.06.5-.23.64Z"/>
      <path class="cls-1" d="M419.57,67.33c-.4-.09-.3-.38-.27-.64,0,0,0,0,0,0,.36.05.38.29.34.58,0,0-.07.06-.07.06Z"/>
      <path class="cls-1" d="M415.95,66.09c-.08-.09-.16-.18-.25-.27.05-.04.11-.08.16-.13.03.13.06.26.1.39,0,0,0,0,0,0Z"/>
      <path class="cls-3" d="M352.78,51.36c0-.31-.08-.67.36-.79-.12.26-.24.53-.36.79Z"/>
      <path class="cls-1" d="M410.18,74.31c.1.1.21.2.31.3,0,0,.02-.02.02-.02-.1-.1-.21-.2-.31-.3l-.02.02Z"/>
      <path class="cls-1" d="M409.28,73.38s-.08-.05-.11-.08c-.02-.02,0-.06,0-.09.03.06.07.12.1.19l.02-.02Z"/>
      <path class="cls-1" d="M410.2,74.29c-.1-.1-.2-.2-.3-.3,0,0-.02.02-.02.02.1.1.2.2.31.3,0,0,.02-.02.02-.02Z"/>
      <path class="cls-1" d="M409.57,73.7c.21,0,.3.1.3.3,0,0,.02-.02.02-.02-.1-.1-.2-.2-.3-.3,0,0-.02.02-.02.02Z"/>
      <path class="cls-1" d="M409.26,73.4c.21,0,.31.1.31.31,0,0,.02-.02.02-.02-.1-.1-.21-.21-.31-.31,0,0-.02.02-.02.02Z"/>
      <path class="cls-3" d="M422.94,61.61c-.43-.14-.32-.3-.01-.46,0,.15,0,.3.01.46Z"/>
      <path class="cls-1" d="M408.34,72.49l.19.09s-.07.01-.08,0c-.03-.03-.05-.07-.08-.11l-.02.02Z"/>
      <path class="cls-1" d="M408.36,72.48s-.08-.05-.11-.08c-.01-.02,0-.05,0-.08.03.06.06.12.09.18,0,0,.02-.02.02-.02Z"/>
      <path class="cls-1" d="M349.98,59.09c-.03-.07-.07-.14-.08-.21,0-.02.06-.05.1-.08,0,.1-.01.19-.02.29Z"/>
      <path class="cls-8" d="M383.09,83.77c-.88.31-1.58.83-2.3,1.46-1.96,1.71-4.5,2.25-6.95,2.86-.64.16-1.29-.49-1.84-.94-1.44-1.17-2.87-2.36-4.3-3.54,0,0-.05-.14-.05-.14,1.04-.65-.02-1.67.43-2.42.58-.24,1.16-.64,1.77-.07,1.09,1.03,2.48,1.27,3.88,1.5,1.02.15,2.02.75,3.07.2.43-.22.73.05.94.23.86.72,1.73.63,2.66.21.67,1.17,1.82.31,2.7.63Z"/>
      <path class="cls-1" d="M376.8,110.47c-.69.25-1.22-.33-1.86-.37-.77-1.6-.55-3.36-.81-5.04-.11-.32-.04-.64.19-.84.44-.36-.57-1.51.53-1.26.81.19,1.78.8,1.81,1.88.03.95.54,1.56,1.18,2.05.79.6,1.28-.16,1.78-.62.86-.79,1.93-.34,2.54.03,1.76,1.08,3.29,2.54,5.33,3.16.01,0-.05.27-.08.42-1.03-.47-2.01-.29-2.97.26.99-.09,1.98-.18,2.97-.27.81-.11,1.62-.26,2.36.56-2.3.1-4.6.2-6.9.3-2.01-.48-4.06.06-6.07-.26Z"/>
      <path class="cls-8" d="M354.75,96.52c3.31,5.58,8.43,8.65,14.43,10.5.21.05.43.1.64.15.9.38,1.8.77,2.71,1.15-.3.17-.56.44-.96.31-4.35-1.42-8.71-2.8-12.33-5.79-1.46-1.2-2.68-2.6-3.75-4.13-.45-.64-.91-1.32-.74-2.2Z"/>
      <path class="cls-1" d="M380.3,119.39c1.26-1.64,2.39-3.12,3.54-4.59.29-.38.6-1.02,1.16-.41.47.51,1.43.81,1.11,1.79-.74,2.27-3.07,3.62-5.81,3.22Z"/>
      <path class="cls-1" d="M394.78,108.38c.9,1.97,1.22,4.19,2.15,6.08.85,1.72.65,3.41.76,5.17-1.09-3.33-2.18-6.65-3.28-9.98.2-.4-.15-.96.37-1.27Z"/>
      <path class="cls-1" d="M404.31,160.63c.94-1.8-.78-2.79-.76-4.26.02-.98.05-1.97,1.3-1.88,1.15.08,1.39,1.13,1.22,2.04-.2,1.04-.49,1.91.75,2.54.45.23-.03.72-.32.73-.7.03-1.12.65-2.19.84ZM404.68,155.36c-.33.05-.55.26-.53.59.03.53-.04,1.18.61,1.4.31.11.59-.2.56-.54-.05-.53,0-1.13-.63-1.46Z"/>
      <path class="cls-1" d="M418.84,166.65c-1.07-.69-1.2-1.75-1.03-2.86.11-.73.54-1.41-.14-2.1-.19-.19-.24-.59.04-.82.23-.18.46-.05.67.11.56.44,1.67.12,1.7,1.29.04,1.15-.43,2.38.46,3.43-.14.06-.27.11-.41.17-.43-.46-.66-1.15-1.53-1.42.09.86.16,1.52.23,2.19Z"/>
      <path class="cls-1" d="M381.74,112.43c-1.62.64-2.91,1.36-3.97,2.48-1.07,1.13-.97,2.66-1.13,4.11-.16-.05-.31-.1-.47-.16.31-1.74.67-3.48.92-5.23.12-.87.49-1.24,1.36-1.21,1.02.04,2.03,0,3.28,0Z"/>
      <path class="cls-1" d="M395.36,107.24c2.64-1.6,5.57-2.57,8.09-4.31.25-.17.52-.31.77-.47.31-.2.62-.75,1-.33.43.48-.05.8-.44,1.06-2.9,1.92-5.99,3.4-9.42,4.05Z"/>
      <path class="cls-1" d="M363.04,110.88c3.21,1.83,6.21,3.21,9.42,4.1-2.34.4-8.45-2.14-9.42-4.1Z"/>
      <path class="cls-8" d="M394.78,108.38c-.52.31-.17.87-.37,1.27-.35-.18-.47-.5-.5-.86-.14-2.19-.27-4.38-.41-6.58.22,0,.44,0,.66.01.21,2.05.41,4.1.62,6.15Z"/>
      <path class="cls-8" d="M413.15,93.5c-.39.41-.67.88-.76,1.44-.44.69-.37,1.81-1.56,1.88l-.05-.04c.18-1.24,1.01-2.21,1.41-3.36.28-.79.67-1.53.45-2.4,0,0-.04.02-.04.02.37.12.25-.15.26-.33.31-.16.35-.68.83-.61-.18,1.13-.36,2.27-.55,3.4Z"/>
      <path class="cls-1" d="M389.27,118.81c-1.2.42-2.27.41-3.45.37.24-.92.82-1.75,1.53-1.91.91-.2,1.25.91,1.92,1.54Z"/>
      <path class="cls-1" d="M355.54,148.64c.32-1.03,1.24-1,1.94-1.27.26-.1.82.15.65.31-.66.62.4,1.86-.43,1.9-.54.03-1.65-.17-2.16-.93Z"/>
      <path class="cls-1" d="M364.17,171.95c-.78-1.41-1.49-2.36-1.68-3.57-.05-.32-.27-.63.24-.84.47-.2.75.1.84.38.37,1.15,1.09,2.26.61,4.03Z"/>
      <path class="cls-8" d="M418.84,166.65c-.07-.67-.14-1.33-.23-2.19.87.27,1.1.96,1.53,1.42.01.18.02.36.04.54-.16.37.04.98-.65,1-.06-.02-.12-.04-.18-.08-.11-.12-.21-.25-.32-.37-.06-.11-.13-.21-.19-.32Z"/>
      <path class="cls-1" d="M417.45,154.37c.07.28-.02.45-.26.44-.32-.02-.71.28-.94-.17-.41-.8-.81-1.6-1.18-2.42-.11-.24-.06-.52.2-.65.31-.15.6-.05.8.21.61.8.62,1.91,1.39,2.58Z"/>
      <path class="cls-8" d="M371.59,151.5c.17.17.32.4.53.49.51.22,1.32.2.94,1.09-.35.82-1.02.55-1.65.32-.13-.05-.29-.03-.44-.05-.11-.73.33-1.26.62-1.85Z"/>
      <path class="cls-1" d="M372.53,108.32c-.9-.38-1.81-.77-2.71-1.15,1.33-.47,2.99.04,3.86,1.19-.08.07-.15.13-.23.2-.49.64-.61-.2-.92-.24Z"/>
      <path class="cls-8" d="M353.55,156.58c-.12.63-.62.97-1.31,1.06-.33.04-.49-.21-.33-.46.32-.5.05-1.43.95-1.49.41-.03.73.28.69.89Z"/>
      <path class="cls-8" d="M376.8,110.47c2.01.32,4.07-.22,6.07.26-1.61.11-3.24-.05-4.82.51-.47.17-1.24.13-1.25-.78Z"/>
      <path class="cls-8" d="M373.46,108.56c.08-.07.15-.13.23-.2.86-1,.15-2.22.44-3.3.26,1.68.04,3.44.81,5.04-1.21.18-.62-1.39-1.49-1.54Z"/>
      <path class="cls-8" d="M410.83,96.83c-.33,1.59-1.43,2.55-2.71,3.37-.09-.09-.18-.18-.27-.27,1.04-.99,1.61-2.42,2.93-3.15,0,0,.05.04.05.04Z"/>
      <path class="cls-8" d="M355.14,168.18v2.66c-.88-.66-.54-1.77-1.19-2.37.24-.73.71-.56,1.19-.29Z"/>
      <path class="cls-1" d="M391.24,111.94c-.86.12-1.73.24-2.59.34-.23.03-.53,0-.57-.32-.04-.32.2-.44.46-.44.9.01,1.82-.28,2.7.42Z"/>
      <path class="cls-1" d="M405.03,109.18c.87-.42,1.27-1.38,2.26-2.04-.3,1.43-1.08,1.97-2.26,2.04Z"/>
      <path class="cls-1" d="M406.66,164.43c-.43-.04-.94.12-.94-.37,0-.64.65-.69,1.1-.81.5-.13.81.3.8.67-.01.72-.7.31-.96.51Z"/>
      <path class="cls-1" d="M385.63,104.77c-.77.69-1.62,1.21-2.91,1.45.81-1.12,1.78-1.39,2.79-1.59.04.05.09.09.13.14Z"/>
      <path class="cls-1" d="M402.92,146.02c.49,0,.8.37.9.8.07.32-.29.48-.61.51-.53.05-.66-.36-.8-.74-.15-.42.13-.52.51-.58Z"/>
      <path class="cls-8" d="M408.12,100.2c-.55.65-1.08,1.33-2.34,1.63.7-.98,1.2-1.63,2.07-1.9.09.09.18.18.27.27Z"/>
      <path class="cls-1" d="M419.53,167.42c.69-.02.49-.63.65-1,.79.15.77.81.51,1.22-.37.58-.82.14-1.16-.22Z"/>
      <path class="cls-1" d="M394.16,102.23c-.22,0-.44,0-.66-.01-.07-.42-.27-.87.12-1.23.07-.06.34-.05.36,0,.19.39.75.75.17,1.25Z"/>
      <path class="cls-1" d="M407.59,106.87c.35-.59.62-.98,1.28-1.13-.13.66-.45.98-1.28,1.13Z"/>
      <path class="cls-1" d="M386.23,104.44c-.2.11-.4.22-.6.32-.04-.05-.08-.09-.13-.14.14-.24.35-.31.61-.3.04.04.08.08.12.11Z"/>
      <path class="cls-8" d="M371,153.34c-.1.1-.21.21-.31.31.07-.13,0-.41.31-.31Z"/>
      <path class="cls-1" d="M419.03,166.97c.11.12.21.25.32.37-.22-.02-.35-.13-.32-.37Z"/>
      <path class="cls-1" d="M386.12,104.33c.08-.14.18-.25.32-.06,0,0-.13.11-.2.18-.04-.04-.08-.08-.12-.11Z"/>
      <path class="cls-1" d="M346.81,35.69c-2.72,1.6-4.65-.54-7.17-1.34.47,1.57,1.49,2.44,2.45,3.27.99.85,1.69,1.82,2.1,3.05.15.44.19.94-.3.98-1.72.15-1.81,1.48-2.13,2.68-.23.87-.16,1.84-1.07,2.48-.23.16-.1.85-.14,1.36-1.65-3.88-3.41-7.66-4.28-11.76-.41-1.9-.61-3.84-.72-5.78-.03-.63.43-.65.81-.6.7.08,1.42.16,2.07.39,3.17,1.13,6,2.8,8.38,5.26Z"/>
      <path class="cls-8" d="M409.84,50.58c.09.75.7,1.34.67,2.13-2.73-1.6-4.2-4.29-5.9-6.79-.35-.51-.16-1.17-.18-1.76,1.22.12,1.44,1.45,2.35,1.96.22,1.77,1.84,2.52,2.76,3.78-.04.3.03.56.33.7l-.03-.02Z"/>
      <path class="cls-1" d="M416.55,21.98c-.3,1.48-.67,2.94-.67,4.51-.45-.14-.9-.64-1.35.07-.26.41-.74.67-1.12,1-.32.28-.59.55-.99.06-.3-.38-.38-.69-.05-1.06,1.38-1.53,2.55-3.26,4.18-4.57h-.01Z"/>
      <path class="cls-1" d="M421.55,35.18c.3,2.05.1,3.72-.23,5.6-.55-.83-1.2-1.18-2.04-1.24-.39-.03-.8-.23-.85-.72-.04-.42.02-.82.51-.96,1.22-.35,1.74-1.43,2.61-2.67Z"/>
      <path class="cls-8" d="M380.27,61.04c.12.29.2.75-.16.72-1.49-.15-2.92,1.51-4.45.17-.13-.11-.38-.07-.58-.1.22-.12.48-.38.64-.33,1.59.48,3.01-.59,4.55-.45Z"/>
      <path class="cls-1" d="M398.58,28.39c-1.21.87-2.9.68-3.13,2.46-.04.3-.72-.03-1.03-.25-.55-.37-.16-.7.14-.95,1.08-.91,2.37-1.21,4.03-1.27Z"/>
      <path class="cls-1" d="M361.55,39.49c1.54.08,2.59.94,3.4,2.18-1.4-.31-2.49-1.11-3.4-2.18Z"/>
      <path class="cls-1" d="M401.99,32.93c1.04-.06,2.1-.38,3.35.26-1.29-.2-2.38,1.16-3.38-.22l.03-.03Z"/>
      <path class="cls-1" d="M371.31,35.97c-.75-.2-1.2-.76-1.84-1.57,1.13.26,1.59.79,1.83,1.58h.01Z"/>
      <path class="cls-1" d="M388.65,29.31c-.18.51-.39,1.01-.91,1.46-.05-.75.21-1.24.76-1.58.05.04.1.08.15.12Z"/>
      <path class="cls-1" d="M389.55,28.09c-.08.57-.5.89-.9,1.23-.05-.04-.1-.08-.15-.12.15-.55.36-1.05,1.02-1.13,0,0,.03.03.03.03Z"/>
      <path class="cls-8" d="M354.9,65.45c-.03.19-.06.39-.09.58-.22-.04-.62.09-.62-.18,0-.31.38-.41.71-.4Z"/>
      <path class="cls-1" d="M401.96,32.96c-.32-.03-.65-.06-1.1-.1.5-.29.83-.32,1.12.06,0,0-.03.03-.03.03Z"/>
      <path class="cls-1" d="M408.37,42.35c-.14-.03-.28-.06-.42-.09.02-.04.05-.09.07-.13.11.08.22.16.33.24,0,0,.01-.02.01-.02Z"/>
      <path class="cls-1" d="M416.56,21.99s.05-.07.08-.11c-.03.03-.06.06-.09.1,0,0,.01.01.01.01Z"/>
      <path class="cls-8" d="M399.59,25.98c-.05.12-.06.31-.24.21-.06-.03-.01-.25-.02-.39.09.06.17.11.26.17Z"/>
      <path class="cls-1" d="M371.3,35.98s.07.03.1.05c-.03-.02-.06-.04-.09-.06,0,0-.01.01-.01.01Z"/>
      <path class="cls-1" d="M409.89,42.05s-.09-.09-.14-.13c.03,0,.07,0,.09.03.02.03.02.08.03.12,0,0,.02-.02.02-.02Z"/>
      <path class="cls-8" d="M404.45,44.18c-.07-.03-.14-.05-.21-.08.06-.08.13-.15.19-.23.03.07.07.13.08.2,0,.03-.04.07-.06.11Z"/>
      <path class="cls-8" d="M342.15,71.84c-.03.09-.05.17-.08.26-.06-.07-.11-.13-.17-.2.09-.01.17-.04.25-.06Z"/>
      <path class="cls-3" d="M402.65,53.08c-.51-.02-.76.15-.6.72.3,1.07.5,2.16.88,3.2.44,1.2.34,1.81-1.15,1.72-1.05-.06-2.11.07-3.17.11-2.72-.13-5.39.09-7.95,1.12-.55.06-.95.06-1.25-.64-1.99-4.73-.35-10.58,3.81-13.53.93-.66,1.92-.58,2.91-.39,3.9.74,6.72,2.84,8.15,6.65.17.44.22.88.11,1.33-.61,0-.89-.57-1.36-.8-.3-.15-.62-.77-.96-.28-.34.49.59.37.59.8ZM393.89,53.59c-.47.09-.86.41-.82.99.03.49.35.84.9.84.59,0,.97-.35,1-.92.03-.61-.39-.88-1.08-.91ZM396.49,49.75c-1-.74-1.8-.24-2.57.01-.51.17-1.5.41-1.21.95.38.71.79-.4,1.29-.43.33-.02.58-.43.97-.16.6.42.99-.1,1.52-.37Z"/>
      <path class="cls-3" d="M373.72,82.5c-1.4-.23-2.79-.47-3.88-1.51-.61-.58-1.19-.17-1.77.07-.28-.1-.55-.19-1-.35.76-.6,1.54-.65,2.32-.63,4.71.11,9.33-.5,13.88-1.71,1.45-.39,2.89.07,4.36,0,2.74-.12,5.42-.54,8.11-1,.33-.06.67-.23.98.06-1.29,1.69-2.84,2.95-5,3.3-.08-.08-.17-.17-.25-.25-.02-.83-.51-.83-1.1-.59-.32.13-.64.47-.92.43-1.81-.26-3.56.35-5.29.55-1.74.2-3.52.18-5.26.4-.93.12-1.94.74-2.84.33-1.2-.55-1.75.07-2.33.89Z"/>
      <path class="cls-8" d="M402.65,53.08c0-.43-.92-.31-.59-.8.34-.49.66.13.96.28.47.23.75.79,1.36.8.66,1.53,2.01,2.73,2.14,4.51-.1.62-.68.93-.95,1.45-1.16-.03-1.56-.52-1.51-1.76.06-1.6-.31-3.2-1.42-4.49Z"/>
      <path class="cls-8" d="M408.04,85.79c-.28-2.15,0-4.36-.65-6.48-.3-.99-.51-2.01-1.01-2.94,1.2,1.19,1.81,3.56,2.21,8.48-.47.14-.13.76-.55.94Z"/>
      <path class="cls-8" d="M392.35,70.73c2-.61,5.43-.11,7.7,1.14-2.44-.36-4.89-.72-7.7-1.14Z"/>
      <path class="cls-3" d="M383.09,83.77c-.87-.32-2.02.54-2.7-.63,2.28.22,4.47-.56,6.72-.62l-.02-.02c-1.32.46-2.48,1.47-4.01,1.27Z"/>
      <path class="cls-8" d="M390.66,59.95c2.56-1.03,5.23-1.26,7.95-1.12-1.94.31-3.88.66-5.83.9-.7.09-1.32,1.15-2.12.22Z"/>
      <path class="cls-3" d="M408.04,85.79c.42-.18.07-.8.55-.94.85.99.88,1.22.31,3.23-.92-.51-.92-1.39-.86-2.28Z"/>
      <path class="cls-3" d="M390.84,81.11c-.67.44-1.4.72-2.2.81,0,0-.06-.08-.06-.08.53-.7,1.32-.81,2.1-.95.05.07.1.14.15.21Z"/>
      <path class="cls-3" d="M388.64,81.92c-.37.58-1.01.45-1.54.58,0,0,.02.02.02.02.18-.89.91-.6,1.47-.68l.06.08Z"/>
      <path class="cls-8" d="M410.49,52.68c.42.32.2.8.32,1.2-.59-.27-.18-.81-.32-1.2Z"/>
      <path class="cls-3" d="M391.71,80.74c-.29.12-.58.24-.88.36-.05-.07-.1-.14-.15-.21.26-.14.52-.27.78-.41.08.08.17.17.25.25Z"/>
      <path class="cls-8" d="M414.44,88.27c-.02.29-.03.58-.05.87-.41-.31-.33-.6.05-.87Z"/>
      <path class="cls-3" d="M412.87,90.72c0,.17.11.45-.26.33.09-.11.17-.22.26-.33Z"/>
      <path class="cls-3" d="M367.58,50.12c-.5.35-.9.56-1.29.41-2.93-1.15-4.68,1-6.6,2.45-1.22.92-2.3,2.09-3.2,3.71.36-4.37,4.18-7.56,7.66-8.08,1.23-.18,2.4.58,3.43,1.52Z"/>
      <path class="cls-8" d="M360.66,56.7c.56-.08,1.11-.13,1.44.48.22.41-.09.67-.28.93-.4.56-.9.55-1.43.17,0-.54-.04-1.09.27-1.58Z"/>
      <path class="cls-8" d="M373.43,57.25c-.67-1.43-.19-2.89,0-4.34,0,1.45,0,2.9,0,4.36,0,0,0-.01,0-.01Z"/>
      <path class="cls-3" d="M418.12,53.33s-.18.13-.23.09c-.14-.1-.27-.26-.34-.42-.07-.18.09-.26.24-.26.25,0,.28.21.33.59Z"/>
      <path class="cls-3" d="M416.87,52.01c.16-.08.28-.19.36-.17.1.04.2.18.21.29.01.12-.06.3-.25.2-.11-.06-.18-.18-.32-.32Z"/>
      <path class="cls-3" d="M416.32,50.82c.26.02.52.06.51.41,0,.07-.11.2-.16.2-.32-.01-.4-.25-.44-.51l.09-.09Z"/>
      <path class="cls-3" d="M409.87,50.6c-.3-.14-.37-.4-.33-.7.38.11.43.37.33.7Z"/>
      <path class="cls-3" d="M416.23,50.9l-.13-.19c.07.03.15.07.22.1,0,0-.09.09-.09.09Z"/>
      <path class="cls-8" d="M358.49,177.97c-.49.04-.9-.14-1.3-.38-.37-.23-.57-.63-.57-1.02,0-.5.52-.34.82-.46.85-.32,1.7-.63,2.56-.94.79-.28.96-.06.79.78-.27,1.32-.84,2.15-2.3,2.01Z"/>
      <path class="cls-3" d="M357.94,170.7c-.11.15-.21.3-.32.44-.05-.06-.1-.12-.15-.18.16-.09.32-.17.48-.26h0Z"/>
      <path class="cls-3" d="M418.39,77.65c-.47-.44-.21-1.03-.31-1.54.54.43.32,1.01.31,1.54Z"/>
      <path class="cls-8" d="M423.49,74.55c-.53-1.28-.14-2.62-.24-3.92.56,1.28.1,2.62.24,3.92Z"/>
      <path class="cls-8" d="M413.56,94.96c-.21.08-.25-.09-.32-.21.14.02.36-.08.32.21Z"/>
      <path class="cls-1" d="M391.46,80.49c-.26.14-.52.27-.78.41-.78.14-1.57.25-2.1.95-.56.07-1.29-.22-1.47.68-2.26.06-4.44.84-6.72.62-.92.42-1.8.51-2.66-.21-.21-.18-.51-.45-.94-.23-1.04.54-2.05-.06-3.07-.2.57-.82,1.13-1.44,2.33-.89.9.41,1.91-.21,2.84-.33,1.74-.22,3.52-.2,5.26-.4,1.73-.2,3.48-.81,5.29-.55.28.04.6-.31.92-.43.58-.23,1.08-.24,1.1.59Z"/>
      <path class="cls-3" d="M387.41,109.88c-.99.09-1.98.18-2.97.27.96-.55,1.95-.73,2.97-.26,0,0,0-.01,0-.01Z"/>
      <path class="cls-8" d="M404.68,155.36c.64.33.59.93.63,1.46.03.34-.25.64-.56.54-.64-.22-.58-.87-.61-1.4-.02-.32.2-.54.53-.59Z"/>
      <path class="cls-8" d="M393.89,53.59c.69.03,1.11.3,1.08.91-.03.57-.41.91-1,.92-.54,0-.87-.35-.9-.84-.04-.59.35-.9.82-.99Z"/>
      <path class="cls-8" d="M396.49,49.75c-.52.27-.91.8-1.52.37-.39-.27-.64.14-.97.16-.49.03-.9,1.14-1.29.43-.29-.54.7-.78,1.21-.95.76-.25,1.56-.76,2.57-.01Z"/>
    </g>
    <g>
      <path class="cls-5" d="M412.36,100.39c.05.5-.23.9-.44,1.31-.1.62-.98.95-.64,1.74.01,1.25.19,2.45.62,3.64.32.89.32,1.93,1.77,1.33.54-.22.76.41.88.84.69,2.44.95,4.96,1.21,7.47.06.54-.23,1.07-.7,1.26-1.2.5-.94,1.42-.85,2.36.12,1.21.78,2.47-.24,3.62-.12.13-.02.48.02.72.35,2.5.7,5,1.06,7.59.39.25.47-.55.94-.41.9,5.09,1.56,10.25,2.04,15.42.47,5.03,1.9,9.82,3.69,14.49.96,2.51,1.31,5.18,2.28,7.69.26.68.18,1.51-.43,2.12-1.11.33-1.7,1.62-1.87,2.24-.56,2.04-1.8,1.24-2.79.95-1.29-.39-1.97-.08-2.26,1.36-.63-1.54-1.49-1.84-2.69-.71-.27.25-.48.01-.7-.26-.78-.92-1.56-.88-2.25.14-.59-.81-1.36-1.26-2.34-.84-.37.16-.61.66-.61,1.16-.06.09-.12.18-.18.27-.54-.04-.5-.38-.37-.75.14-.41.22-.91-.2-1.08-1.65-.66-3-2.3-5.07-1.61-.35-.17-.52-.45-.54-.83-.22-7.51-2.35-14.62-4.62-21.69-.24-2.06-1.04-3.91-2.21-5.59-.48-.68-1-1.64-2.15-1.16-.91.38-1.87.67-2.6,1.39-1.08-.1-2,.56-3.06.61-1.8.1-3.49-.31-5.14-.93-1.8-.68-3.34-.29-4.67,1.06-.96.7-1.93,1.4-2.89,2.11-.44.33-.95.62-1.12,1.19-.33,1.09-1.07,1.93-1.65,2.86-.29.59-.74,1.13-.62,1.85l.03-.02c-.31-.1-.23.18-.31.31-.5.51-.65,1.19-.86,1.84-1.59,3.55-2.7,7.27-3.75,11-.16.18-.43.32-.23.64-.07.07-.14.14-.22.21-1.24-.61-1.68-.24-1.25,1.07.26.79.15,1.6.26,2.39-.03.46-.05.92-.08,1.38-.5.39-.43,1.26-1.29,1.45-.35-.9-.69-1.78-1.02-2.66-.12-.33-.31-.9-.59-.74-1.12.64-.5-.4-.57-.61-.14-.36-.06-.8-.17-1.18-.1-.33.09-.94-.53-.91-.53.03-.98.34-.99.94-.02,1.07-.82,1.59-1.48,2.23,0,0,0,0,0,0,.13-.33.25-.66.38-.98.21-.52.46-1.19.03-1.55-.45-.37-1.13-.52-1.8-.34-.47.13-.88.51-1.42.35-.49-.26-.95-.43-1.19.29-.42.04-.48.68-1.05.59-.01-.48.45-1.1-.51-1.32-.91-.21-.82.47-1.08.89-.35.57-.72,1.13-1.08,1.69-.03-.58.1-1.08.38-1.48.56-.81.29-1.2-.56-1.48-.71-.24-1.44.58-2.12-.07-.22.41-.51.81-.63,1.25-.16.58-.36,1-1.25,1.02.97-1.58,2.04-3.09.37-4.69-.97-1.34-.41-2.66.01-4.01,1.71-5.42,4.7-10.26,7.02-15.4,1.16-2.58,1.07-5.32,1.75-7.94.32-1.21.45-2.48.68-3.73.5.13.05.74.71.92.09-2.31.84-4.5.78-6.8-.03-1.21-.12-2.42-.19-3.63-.04-.79.33-1.77-1.14-1.7-.53.02-.66-.77-.7-1.23-.24-2.77-.45-5.54-.38-8.32.02-.85.3-1.53,1.38-1.26.41.1.66.04.72-.46.18-1.64,1.07-3.34-.47-4.82-.05-.04,0-.18,0-.28.44.07.67.41.9.73.97,1.31,2.16,2.38,3.48,3.32.39.28.75.84,1.5.14-.24-.15-.45-.29-.66-.43-3.86-2.59-6.29-6.12-7.13-10.72-.06-.34.01-.86-.57-.92-1.67-.34-2.23-1.37-2.18-4.09.41-.04.56.38.88.5.79.43,1.08,1.4,1.94,1.76-.17.87.29,1.56.74,2.2,1.08,1.53,2.3,2.93,3.75,4.13,3.62,2.99,7.98,4.37,12.33,5.79.4.13.66-.15.96-.31.32.04.43.88.92.24.87.15.28,1.72,1.49,1.54.64.04,1.16.62,1.86.37.01.91.78.94,1.25.78,1.58-.56,3.21-.41,4.82-.51,2.3-.1,4.6-.2,6.9-.3-.74-.81-1.55-.67-2.36-.56h0c.03-.13.1-.4.08-.41-2.04-.62-3.57-2.08-5.33-3.16-.62-.38-1.68-.82-2.54-.03-.5.46-.99,1.21-1.78.62-.64-.49-1.15-1.1-1.18-2.05-.04-1.08-1.01-1.69-1.81-1.88-1.1-.25-.09.9-.53,1.26-.23.19-.3.52-.19.84-.29,1.08.41,2.3-.44,3.3-.88-1.15-2.53-1.66-3.86-1.19-.21-.05-.43-.1-.64-.15-.4-1.15-.32-2.39-.55-3.56-.47-2.44-1.2-4.14-3.62-5.25-1.42-.65-3.04-1.03-4.21-2.5-.94-1.18-2.59-3.92-2.25-5.57,1.09,1.04,1.32,2.72,2.66,3.58.74-.16.43-.73.34-1.08-.48-2.04-.55-4.08-.24-6.14.3-1.96,1.22-3.66,2.32-5.24.66-.95,1.7-.69,3.03-.23-1.34.32-2.28.61-2.89,1.79,1.47-.21,2.68.15,3.85.66,0,0,.05.14.05.14-.27.66.09,1.2.39,1.71,1.1,1.81,2.2,3.62,3.37,5.38.58.87.92,2.11,1.93,2.46,1.52.53,2.77,1.34,3.96,2.38.58.5,1.09.3,1.27-.57.13-.66.24-1.67,1.01-1.65.77.02,1.05.97,1.28,1.71.09.29.19.58.31.85.28.62.79.87,1.45.92.82.06.87-.62.99-1.1.16-.67.37-1.01,1.16-1.06,1.16-.07,2.08-.61,2.6-1.77.39-.88.99-1.19,1.91-.48.48.37,1.09.93,1.78.56,1.18-.64,2.31-.31,3.3.24,1.68.92,1.59-.3,1.76-1.28.03-.2.02-.41,0-.61-.27-2.76.58-4.24,3.14-5.43.28-.13.65-.18.71-.49.34-1.67.86-3.39.14-5.04-.35-.79-.22-1.13.47-1.37.84-.3,1.03-.64.16-1.16-.24-.15-.63-.24-.5-.63.14-.39.56-.56.87-.41.93.43,1.05-.19,1.06-1.14.63.67,1.15,1.04,1.43,1.55,1.23,2.2,1.97,4.6,2.48,7.06.42,2.04.4,4.12.34,6.2-.01.41-.7.82-.17,1.18.75.52.41-.57.83-.67.23-.06.46-.43.62-.39,1.47.4,1.67-.68,2.05-1.64.14-.34.4-.8.92-.52.53.29.18.7.05,1.05-.32.85-.65,1.69-.96,2.55-.09.26-.35.6.04.78.16.07.59-.06.66-.21.42-.95,1.41-1.05,2.14-1.53.22.87-.17,1.61-.45,2.4-.4,1.15-1.23,2.12-1.41,3.36-1.32.73-1.89,2.15-2.93,3.15-.87.26-1.37.92-2.07,1.9,1.25-.3,1.79-.97,2.34-1.63,1.28-.82,2.39-1.78,2.71-3.37,1.19-.07,1.12-1.19,1.56-1.88.35.75.02,1.67.56,2.38.19.7-.12,1.32-.29,1.97-.5.26-.2.73-.29,1.1ZM386.12,104.33c-.26,0-.47.06-.61.3-1.01.2-1.97.47-2.79,1.59,1.29-.24,2.14-.76,2.91-1.45.2-.11.4-.22.6-.32.07-.06.2-.17.2-.17-.14-.19-.23-.08-.32.06ZM419.53,167.42c.34.36.79.8,1.16.22.27-.41.28-1.07-.51-1.22-.01-.18-.02-.36-.04-.54.14-.06.27-.11.41-.17-.89-1.04-.42-2.27-.46-3.43-.04-1.17-1.14-.85-1.7-1.29-.21-.16-.45-.29-.67-.11-.29.23-.23.62-.04.82.68.69.25,1.37.14,2.1-.17,1.1-.04,2.17,1.03,2.86.06.11.13.21.19.32-.02.24.1.35.32.37.05.04.11.06.18.08ZM394.16,102.23c.58-.5.02-.86-.17-1.25-.02-.05-.29-.06-.36,0-.39.36-.19.81-.12,1.23.14,2.19.27,4.38.41,6.58.02.36.14.68.5.86,1.09,3.33,2.18,6.65,3.28,9.98-.11-1.76.09-3.45-.76-5.17-.93-1.88-1.24-4.11-2.15-6.08-.21-2.05-.41-4.1-.62-6.15ZM380.3,119.39c2.74.4,5.06-.94,5.81-3.22.32-.98-.64-1.28-1.11-1.79-.56-.61-.87.04-1.16.41-1.14,1.47-2.28,2.95-3.54,4.59ZM404.31,160.63c1.07-.19,1.49-.81,2.19-.84.29-.01.78-.5.32-.73-1.25-.63-.95-1.5-.75-2.54.17-.9-.07-1.96-1.22-2.04-1.25-.09-1.28.9-1.3,1.88-.02,1.47,1.69,2.46.76,4.26ZM381.74,112.43c-1.25,0-2.27.03-3.28,0-.87-.03-1.24.34-1.36,1.21-.25,1.75-.61,3.49-.92,5.23.16.05.31.1.47.16.16-1.45.06-2.99,1.13-4.11,1.06-1.12,2.35-1.84,3.97-2.48ZM395.36,107.24c3.43-.65,6.52-2.13,9.42-4.05.38-.25.87-.58.44-1.06-.38-.42-.68.13-1,.33-.25.16-.52.3-.77.47-2.52,1.75-5.46,2.72-8.09,4.31ZM363.04,110.88c.97,1.96,7.08,4.51,9.42,4.1-3.21-.9-6.21-2.27-9.42-4.1ZM389.27,118.81c-.68-.63-1.01-1.74-1.92-1.54-.71.16-1.29.98-1.53,1.91,1.19.05,2.26.05,3.45-.37ZM355.54,148.64c.52.76,1.62.96,2.16.93.83-.04-.23-1.28.43-1.9.17-.16-.39-.41-.65-.31-.7.28-1.62.24-1.94,1.27ZM364.17,171.95c.48-1.77-.23-2.88-.61-4.03-.09-.28-.36-.57-.84-.38-.5.21-.29.51-.24.84.19,1.21.89,2.16,1.68,3.57ZM417.45,154.37c-.76-.67-.78-1.78-1.39-2.58-.2-.26-.49-.37-.8-.21-.26.13-.31.41-.2.65.38.81.78,1.62,1.18,2.42.23.45.62.15.94.17.24.01.34-.15.26-.44ZM353.55,156.58c.04-.61-.28-.92-.69-.89-.9.06-.63.99-.95,1.49-.16.24,0,.5.33.46.69-.09,1.19-.43,1.31-1.06ZM391.24,111.94c-.89-.7-1.81-.41-2.7-.42-.26,0-.5.12-.46.44.04.33.34.34.57.32.87-.09,1.73-.22,2.59-.34ZM405.03,109.18c1.17-.07,1.96-.61,2.26-2.04-.99.66-1.39,1.62-2.26,2.04ZM406.66,164.43c.26-.2.95.21.96-.51,0-.37-.3-.8-.8-.67-.45.12-1.11.17-1.1.81,0,.49.52.33.94.37ZM402.92,146.02c-.38.06-.66.15-.51.58.14.38.27.79.8.74.32-.03.68-.19.61-.51-.1-.44-.41-.8-.9-.8ZM407.59,106.87c.83-.15,1.14-.47,1.28-1.13-.65.15-.92.54-1.28,1.13Z"/>
      <path class="cls-5" d="M375.46,62.66c-.96-.08-1.92-.16-2.88-.25,0-.44.03-.86.14-1.3.33-1.27.86-2.51.71-3.87h0c.62.16.43,1.69,1.24,1.03.69-.56,1.64-1.4,1.44-2.49-.29-1.65-.65-3.35-2.15-4.45-.23-.17-.6-.15-.71-.5-.94-3.09-2.52-5.77-4.96-7.92-3.39-1.49-6.41-.45-9.32,1.36-.38.24-.7.58-1.04.87-2.04-.43-2.97,1.4-4.37,2.22-1.71,1.01-2,2.74-1.04,4.44-1.07,2.25-2.09,4.52-2.53,6.99-.04.03-.1.06-.1.08.01.07.05.14.08.21-.02.38-.05.77-.07,1.15-.69-.13-.41-.69-.48-1.09-.04-.25-.03-.55-.37-.53-.16,0-.36.19-.44.34-.82,1.48-1.01,3.13-.97,4.77.02.89.66,1.08,1.36.5.58-.48,1.11-1.02,1.66-1.53,1.3.52,2.5,1.3,4.05.74.6-.21.52,1.15,1.37,1.06-.41.32-.83.65-1.24.97,0,0,.03-.02.03-.02-.33-.02-.7.09-.71.4,0,.27.39.15.62.18.14-.03.28-.05.41-.08,1.81-.39,3.42-1.65,5.41-1.25-2.01,2.6-4.84,3.99-7.79,5.3-.27-.91.5-1.38.81-2.11-.79-.02-1.49.28-1.98.69-1.74,1.46-4.18,1.33-5.92,2.8-.65.55-.77-.2-.9-.69-.13-.47-.22-1.1-.82-1.1-.6,0-.96.46-1.06,1.08-.09.54-.49.86-.87,1.19,0,0,.03-.01.03-.01-.08.03-.17.05-.25.06-1.2.91-1.34,2.24-1.31,3.57.07,3.22.85,6.32,1.65,9.42-.1.33-.08.73-.61.92-1.24-2.54-1.51-5.3-1.63-8.09-.04-.91-.05-1.82-.08-2.73-.05-1.64-1.45-3.02-.82-4.82-.95.69-1.6,1.6-2.86,2.14.98-2.47,1.9-4.68,2.74-6.93.89-2.36.73-5,1.89-7.3.11-.22.09-.46-.35-.34-.91.24-.29-.57-.5-.81.52-1.18,1.04-2.37,1.55-3.55.09-.22.23-.48.19-.68-.22-1.01-2.89-2.97-4.11-3.08-.25.02-.57-.06-.74.06-1.68,1.22-1.81-.18-2.22-1.25-2.29-5.89-3.15-12-2.81-18.29.06-1.15.32-2.3.66-3.4.31-1.01.44-1.84-.17-2.85-.66-1.1.49-.92,1.01-.95,7.6-.43,14.78.89,21.29,5.07.96.62,1.94,1.22,2.92,1.83.41-.85-.69-1.52-.12-2.44,1.55.98,2.8,2.38,3.43,3.9.79,1.9,2.09,1.17,3.29,1.28.17.02.35-.16.54-.22.48-.16,1.28.21,1.38-.53.08-.59-.66-.55-1.07-.75-.61-.29-.4-.63.06-.83.61-.26,1.26-.45,1.91-.19,2.08.82,3.95,0,5.79-.8,3-1.28,6.05-1.6,9.28-1.03,1.89.34,3.89,1,5.76-.37.53-.38,1.32-.5,2.05-.36-.11.19-.23.38-.34.57-.66.09-.87.59-1.02,1.13-.55.35-.81.83-.76,1.58.52-.45.72-.95.91-1.46.4-.34.82-.66.9-1.23.23-.09.47-.18.7-.27.16.8-.77.98-.95,1.67,2.14.49,4.03-.39,5.84-1.17,1.91-.82,2.49-3.17,4.27-4.4.42.74.03,1.31-.08,1.9,0,.13-.04.35.02.39.18.1.19-.1.24-.21,1.54-1.72,3.11-3.42,4.63-5.17,3.64-4.18,8.39-6.16,13.71-7.02.89-.14,1.76-.45,2.85-.3-1.2,1.2-.58,2.29.04,3.42,1.4,2.5,1.67,5.36,2.46,8.05,1.55,5.28,2.22,10.66,2,16.14-.01.35.68,1.49-.68,1.27-.51-.52-1.18-.54-1.79-.38-.75.19-1.84.51-1.64,1.36.16.71-.16,1-.36,1.45-.23.51-.92.92-.36,1.59.52.61,1.2,1,1.99.82.79-.18,1.57-.29,2.38-.25-.63,1.22-1.93,1.44-3,2.01-.66.35-1.41.53-2.12.78-.62-.32-1.34-.5-1.74-1.13-.4-.62-.6-1.48-1.66-.79-.12.08-.86-.17-1.15-.68-.93-1.61-1.93-3.18-2.93-4.75-.09-.14-.26-.63-.48-.26-.7,1.21-1.25.02-1.85-.06-.01-.04-.01-.09-.03-.12-.01-.02-.06-.02-.09-.03.05.04.09.09.14.13-.28,1.2-1.04.12-1.53.32-.11-.08-.22-.16-.33-.24-.02.04-.05.09-.07.13.14.03.28.06.42.09-.77.88-1.42,1.78-.98,3.07.13.39-.26.59-.62.69-.9-.51-1.12-1.84-2.35-1.96l.02.03s.07-.08.06-.11c-.01-.07-.05-.14-.08-.2-.56-1.16-1.87-1.29-2.75-2.02-1.5-1.25-3.02-2.54-5.14-2.52-1.04,0-2.12.33-3.12.16-2.34-.38-4.21.53-5.13,2.75-.26.62-.55,1.22-.76,1.85-.92,2.69-1.74,5.43-.97,8.3.63,2.32,1.05,4.72,2.25,6.87.22.4.76,1.03.08,1.4-.57.31-1.29.94-1.95-.04-.35-.53-1.04-.56-1.52-.29-1.46.81-2.91.45-4.38.15-.48-.1-.52.37-.78.56-1.54-.14-2.96.93-4.55.45-.17-.05-.43.21-.64.33-.41.52.5.45.38.85ZM371.31,35.97s.06.04.09.06c-.03-.02-.07-.03-.1-.05-.24-.79-.7-1.32-1.83-1.58.64.81,1.09,1.36,1.84,1.57ZM401.99,32.93c-.29-.38-.63-.36-1.12-.06.45.04.77.07,1.1.1,1,1.38,2.09.03,3.38.22-1.26-.64-2.31-.32-3.35-.26ZM416.56,21.99c-1.63,1.31-2.8,3.04-4.18,4.57-.33.37-.26.69.05,1.06.4.49.67.22.99-.06.38-.33.86-.6,1.12-1,.45-.71.89-.21,1.35-.07,0-1.57.37-3.03.67-4.51.03-.03.06-.06.09-.1-.03.04-.05.07-.08.11ZM346.81,35.69c-2.38-2.46-5.22-4.13-8.38-5.26-.65-.23-1.37-.32-2.07-.39-.38-.04-.84-.03-.81.6.1,1.94.31,3.88.72,5.78.87,4.1,2.63,7.88,4.28,11.76.04-.51-.09-1.2.14-1.36.91-.64.84-1.61,1.07-2.48.32-1.21.41-2.54,2.13-2.68.5-.04.45-.54.3-.98-.41-1.23-1.11-2.2-2.1-3.05-.96-.83-1.98-1.7-2.45-3.27,2.52.8,4.45,2.94,7.17,1.34ZM421.55,35.18c-.87,1.24-1.38,2.32-2.61,2.67-.5.14-.56.54-.51.96.05.5.46.69.85.72.84.06,1.49.41,2.04,1.24.33-1.88.53-3.55.23-5.6ZM398.58,28.39c-1.65.06-2.95.36-4.03,1.27-.29.25-.69.57-.14.95.31.21,1,.55,1.03.25.23-1.78,1.92-1.59,3.13-2.46ZM361.55,39.49c.91,1.07,2,1.88,3.4,2.18-.8-1.24-1.85-2.1-3.4-2.18Z"/>
      <path class="cls-14" d="M375.46,62.66c.12-.39-.79-.32-.38-.85.2.03.45,0,.58.1,1.53,1.34,2.96-.32,4.45-.17.36.04.27-.43.16-.72.26-.18.3-.65.78-.56,1.47.3,2.92.66,4.38-.15.48-.27,1.17-.24,1.52.29.66.99,1.38.36,1.95.04.68-.37.14-1-.08-1.4-1.2-2.15-1.62-4.54-2.25-6.87-.77-2.87.05-5.6.97-8.3.21-.63.5-1.24.76-1.85.92-2.22,2.79-3.14,5.13-2.75,1,.16,2.08-.15,3.12-.16,2.12-.01,3.64,1.27,5.14,2.52.88.73,2.2.86,2.75,2.02-.06.08-.13.15-.19.23.07.03.14.05.21.08,0,0-.02-.03-.02-.03.02.59-.16,1.25.18,1.76,1.7,2.49,3.17,5.19,5.9,6.79l-.02-.02c.13.39-.27.93.32,1.2.61.92.31,1.7-.35,2.43-1.05,1.17-2.41,1.57-3.93,1.57-.14-1.78-1.48-2.98-2.15-4.51.11-.46.05-.89-.11-1.33-1.43-3.81-4.24-5.91-8.15-6.65-.99-.19-1.98-.27-2.91.39-4.16,2.95-5.79,8.8-3.81,13.53.3.71.7.7,1.25.64.8.93,1.42-.14,2.12-.22,1.95-.24,3.89-.59,5.83-.9,1.06-.04,2.12-.18,3.17-.11,1.48.09,1.59-.53,1.15-1.72-.38-1.03-.58-2.13-.88-3.2-.16-.56.1-.73.6-.72,1.11,1.29,1.48,2.89,1.42,4.49-.04,1.25.36,1.73,1.51,1.76.31.76,1.53,0,1.71.91-1.14,0-2.24-.04-3.35.01-.71.04-1.77-.5-2.05.29-.26.73,1.08.66,1.41,1.28-1.33.16-2.54-.55-3.85-.55-1.69-.01-3.35.35-5.09.03-1.31-.24-2.49.65-3.49,1.54-.34.3-.6.65-1.05.84-1.39.58-1.54.96-.31,1.82,1.29.91,2.39,1.99,3.59,2.98,1.96,1.63,4.45,1.38,6.72,1.81,3.69.7,7.09,1.85,9.46,5,.12.16.2.35.29.53l.02-.02c-1.03.13-.42.73-.25,1.07,1.03,2.11,1.66,4.29,1.74,6.67.02.69-.55,1.44.09,2.23,1.48-2.53.22-4.82-.28-7.14,1.32.04,2.79,1.49,3.22,3.19.53,2.13.28,4.31.32,6.47,0,0,.02-.03.02-.03-.38.27-.46.55-.05.87.03.04.06.09.09.14-.26.28-.53.55-.79.83-.48-.07-.52.46-.83.61l-.26.33.04-.02c-.73.48-1.72.58-2.14,1.53-.07.15-.5.29-.66.21-.39-.18-.13-.52-.04-.78.31-.85.65-1.7.96-2.55.13-.35.48-.76-.05-1.05-.52-.28-.78.18-.92.52-.38.95-.58,2.03-2.05,1.64-.16-.04-.39.34-.62.39-.41.1-.08,1.19-.83.67-.52-.36.16-.77.17-1.18.06-2.08.08-4.16-.34-6.2-.51-2.46-1.25-4.85-2.48-7.06-.28-.51-.8-.88-1.43-1.55-.02.94-.13,1.57-1.06,1.14-.31-.15-.74.02-.87.41-.14.4.25.49.5.63.87.52.69.86-.16,1.16-.7.25-.82.58-.47,1.37.72,1.65.2,3.36-.14,5.04-.06.32-.43.37-.71.49-2.56,1.19-3.4,2.67-3.14,5.43.02.2.03.41,0,.61-.17.98-.09,2.21-1.76,1.28-.99-.55-2.12-.88-3.3-.24-.69.37-1.3-.19-1.78-.56-.93-.71-1.52-.4-1.91.48-.52,1.16-1.44,1.71-2.6,1.77-.79.04-1,.38-1.16,1.06-.11.48-.16,1.17-.99,1.1-.66-.05-1.17-.3-1.45-.92-.12-.27-.22-.56-.31-.85-.23-.74-.51-1.69-1.28-1.71-.77-.02-.87.99-1.01,1.65-.18.87-.69,1.07-1.27.57-1.19-1.03-2.45-1.85-3.96-2.38-1.01-.35-1.35-1.59-1.93-2.46-1.17-1.76-2.28-3.57-3.37-5.38-.31-.5-.66-1.05-.39-1.71,1.43,1.18,2.85,2.38,4.3,3.54.55.44,1.21,1.09,1.84.94,2.45-.6,4.99-1.15,6.95-2.86.72-.63,1.42-1.15,2.3-1.46,1.53.19,2.68-.81,4.01-1.27.54-.13,1.18,0,1.54-.58.8-.1,1.53-.38,2.2-.82.29-.12.58-.24.88-.36,2.16-.35,3.71-1.61,5-3.3-.31-.29-.66-.11-.98-.06-2.69.46-5.37.88-8.11,1-1.46.06-2.91-.39-4.36,0-4.55,1.21-9.17,1.81-13.88,1.71-.77-.02-1.56.03-2.32.63.44.16.72.25,1,.35-.45.75.61,1.77-.43,2.42-1.17-.52-2.38-.87-3.85-.66.61-1.17,1.55-1.47,2.89-1.79-1.34-.46-2.37-.72-3.03.23-1.1,1.58-2.02,3.29-2.32,5.24-.31,2.06-.24,4.1.24,6.14.08.35.4.93-.34,1.08-.66-2.42-1.42-4.8-1.75-7.31-.28-2.13.02-4.14.85-6.07.52-1.21,1.73-1.73,2.83-2.13,1.31-.48,2.74-.62,4.12-.89.24-.05.53-.09.64.21.11.31-.15.46-.36.58-.59.32-1.18.62-1.78.93.21.33.39.31.67.2.95-.37,1.65-.6,2.89-.03,1.48.68,3.56.58,5.29-.24,2.15-1.02,4.27-2.1,5.81-4.01.19.05.39.07.57.15,1.81.79,5.16-1.39,4.85-3.34-.22-1.36.17-1.43,1.28-1.39,1.7.06,2.1-.57,1.74-2.15-.06-.25-.1-.56-.13-.85-.13-1.26-.57-2.33-1.8-2.89-3.82-1.73-7.45-1.17-10.93.98-2.55.37-4.29-.82-5.47-2.98.9-.04,1.83.32,2.79.47.72.11,1.55.57,2.15-.31ZM408.59,84.84c-.41-4.92-1.01-7.29-2.21-8.48.51.93.71,1.95,1.01,2.94.65,2.12.37,4.33.65,6.48-.06.9-.07,1.78.86,2.28.56-2,.54-2.24-.31-3.23ZM392.35,70.73c2.81.42,5.26.78,7.7,1.14-2.27-1.25-5.7-1.75-7.7-1.14Z"/>
      <path class="cls-14" d="M368.3,42.92c2.44,2.15,4.02,4.83,4.96,7.92.11.35.48.33.71.5,1.49,1.1,1.86,2.8,2.15,4.45.19,1.09-.76,1.94-1.44,2.49-.81.66-.63-.88-1.24-1.02,0-1.45,0-2.9,0-4.36-.18,1.45-.67,2.92,0,4.34.15,1.36-.37,2.6-.71,3.87-.12.44-.15.86-.14,1.3-.75-.04-.98-.63-1.25-1.18.23-1.72-.34-3.29-1.03-4.8-.92-2.01-4.07-4.08-5.71-3.79-2.55.44-4.5,2-6.48,3.51-.38.29-.16.43.04.69.37.48.48.06.6-.16.46-.75,1.18-.72,1.88-.62.84.12-.1.43.04.64-.31.49-.27,1.04-.27,1.58.19.7,0,1.4,0,2.1-.01,1.55-1.22,1.38-2.15,1.42-1.08.04-.34-.88-.54-1.33-.19-.43.19-1.01-.32-1.39.17-.66.34-1.31.54-2.11-1.65,1.46-2.83,3.04-3.01,5.12-.09,1.03-.68.96-1.34.93-.78-.03-1.4-.29-1.33-1.26.08-1.15.44-2.28,1.17-3.07.95-1.03,1.28-2.25,1.5-3.49.46-2.64,2.23-4.47,3.79-6.38,1.92-2.35,4.38-4.06,7.45-4.74.77-.17,1.45-.77,2.17-1.17ZM367.58,50.12c-1.03-.94-2.21-1.7-3.43-1.52-3.49.52-7.3,3.71-7.66,8.08.9-1.62,1.98-2.79,3.2-3.71,1.92-1.44,3.67-3.6,6.6-2.45.39.16.79-.06,1.29-.41Z"/>
      <path class="cls-14" d="M406.77,46.11c.36-.1.75-.3.61-.69-.44-1.29.21-2.19.98-3.07v.02c.48-.19,1.23.89,1.52-.32l-.02.02c.61.07,1.15,1.26,1.85.06.21-.37.39.12.48.26,1,1.57,2,3.14,2.93,4.75.29.51,1.03.76,1.15.68,1.07-.68,1.27.17,1.66.79.4.63,1.13.81,1.74,1.13-.3.48,0,.86.22,1.26,1.28,2.44,2.07,5.14,3.78,7.36.07.1.03.28.04.43-.46.03-.56-.72-1.14-.5-.19.93-.2,1.82.54,2.56-.07.1-.13.2-.2.3-.31.16-.42.32.01.46,0,0,0,.06,0,.06,0,.95-.28,1.72-1.32,1.98-1.08.07-1.57-.69-2.09-1.46-.24-.37-.6-.74-1.12-.6-.38.11-.25.49-.28.78-.2,1.95-.33,2.01-2.17.85-.29-.6-1.14-1.4-.44-1.82,1.45-.88.89-2.07.38-2.79-1.6-2.27-2.67-4.84-4.19-7.14-.46-.7-1.01-1.09-1.87-.89l.03.02c.1-.33.05-.6-.33-.7-.92-1.26-2.54-2.01-2.76-3.78ZM416.32,50.82c-.07-.03-.15-.07-.22-.1l.13.19c.04.27.12.5.44.51.05,0,.16-.13.16-.2,0-.35-.25-.38-.51-.4ZM418.12,53.33c-.05-.38-.08-.58-.33-.59-.15,0-.31.08-.24.26.07.16.19.32.34.42.05.04.22-.09.23-.09ZM416.87,52.01c.14.14.21.27.32.32.19.1.26-.08.25-.2-.01-.11-.11-.25-.21-.29-.07-.03-.2.09-.36.17Z"/>
      <path class="cls-14" d="M346.4,164.88c1.67,1.6.6,3.11-.37,4.69.89-.02,1.09-.44,1.25-1.02.12-.44.42-.83.63-1.25.68.65,1.41-.17,2.12.07.85.28,1.12.66.56,1.48-.27.4-.41.89-.38,1.48.36-.56.73-1.12,1.08-1.69.26-.42.16-1.09,1.08-.89.96.22.5.84.51,1.32.57.09.63-.55,1.05-.59.66.6.31,1.71,1.19,2.37v-2.66c.54.16.95-.23,1.42-.35.67-.18,1.35-.03,1.8.34.44.36.18,1.03-.03,1.55-.13.33-.26.65-.38.98-.16.09-.32.17-.48.26.05.06.1.12.15.18.11-.15.21-.3.32-.44.65-.64,1.45-1.16,1.48-2.23.01-.6.47-.91.99-.94.61-.03.43.57.53.91.11.38.03.82.17,1.18.08.21-.55,1.25.57.61.28-.16.47.41.59.74.33.89.67,1.76,1.02,2.66.86-.18.79-1.06,1.29-1.45.04,1.73-.21,3.42-.91,5-.71,1.59-1.86,2.62-3.7,2.64-1.87.03-3.71.2-5.52.76-1.24.38-2.46.12-4.03-.66,1.69-.34,2.69-1.1,3.3-2.36.76-1.58.59-1.96-1.12-2.06-1.01-.06-2.02-.03-3.03-.02-1.53.01-1.53.02-3.38-.94.7-.33,1.5,0,2.02-.57.19-.21.51-.14.56.19.18,1.22,1.13.71,1.79.81.82.12,1.46-.09,1.81-.97.39-.96-.06-1.81-.73-2.07-1.75-.68-3.52-1.54-5.49-1.2-.92-1.92-.82-3.91.24-5.87ZM358.49,177.97c1.46.14,2.03-.69,2.3-2.01.17-.84,0-1.07-.79-.78-.85.31-1.71.62-2.56.94-.3.11-.83-.04-.82.46,0,.39.2.79.57,1.02.39.24.81.42,1.3.38Z"/>
      <path class="cls-5" d="M376,65.48c3.48-2.15,7.11-2.71,10.93-.98,1.22.55,1.66,1.63,1.8,2.89.03.29.07.6.13.85.37,1.58-.04,2.21-1.74,2.15-1.11-.04-1.5.02-1.28,1.39.31,1.95-3.04,4.13-4.85,3.34-.18-.08-.38-.1-.57-.15-1.19-.44-1.7-1.41-2.02-2.56-.09-.32.07-.87-.76-.75-2.74.4-4.04-1.4-3.02-4.04.31-.81.77-1.52,1.38-2.14Z"/>
      <path class="cls-14" d="M354.75,96.52c-.85-.36-1.15-1.34-1.94-1.76.79-2.56,2.18-4.97,1.97-6.93.11,2.52,2.39,4.78,4.22,7.28-.1-1.02-.6-1.86-1.08-2.72-.69-1.24-1.25-2.45-.46-3.93.3-.56.19-1.39.16-2.08-.09-1.76.12-3.47.65-5.17-.03,2.99-.36,5.99.29,8.95-.35,1.65,1.31,4.39,2.25,5.57,1.17,1.46,2.79,1.85,4.21,2.5,2.42,1.11,3.15,2.81,3.62,5.25.23,1.18.15,2.42.55,3.56-6.01-1.85-11.13-4.93-14.43-10.5Z"/>
      <path class="cls-14" d="M342.23,84.89c-.8-3.1-1.57-6.2-1.65-9.42-.03-1.33.11-2.66,1.31-3.57.06.07.11.13.17.2.03-.09.05-.17.08-.26,0,0-.03.01-.03.01.71.12.6.67.63,1.17.12,1.96.24,3.92.4,5.88.04.49.19.98.31,1.58,1.06-1.81-.46-4.07,1.23-5.67.43.61-.24,1.62.56,1.78.85.17,1.23-.76,1.61-1.39.59-.98,1.52-.11,2.24-.46.1-.05,0,.8-.14,1.18-1,2.84-1.01,5.82-1.27,8.76-.05.54-.09,1.12.48,1.6.32-1.33-.15-2.81,1.12-4.28.34,3.35.06,6.27-.51,9.23-.78-.44-.76-1.58-1.51-2.1-.41-.43-.27-1.17-1.17-1.71.58,1.21.25,2.38,1.15,3.21.04.39.12.79-.55,1.38-.3-3.26-3.28-4.55-4.46-7.1Z"/>
      <path class="cls-5" d="M360.66,56.7c-.14-.21.8-.52-.04-.64-.7-.1-1.43-.13-1.88.62-.13.21-.23.64-.6.16-.2-.26-.42-.4-.04-.69,1.98-1.51,3.93-3.07,6.48-3.51,1.64-.28,4.8,1.78,5.71,3.79.69,1.51,1.26,3.08,1.03,4.8-.09.29-.24.74-.51.66-1.4-.4-2.73.66-4.13.11-.74-.29-1.47.13-2.19.29-1.96.43-3.92.9-5.86,1.44-.56.15-.76.13-.97-.45-.48-1.39-.96-2.75-.3-4.21.51.37.14.96.32,1.39.2.45-.54,1.38.54,1.33.93-.04,2.14.13,2.15-1.42,0-.7.19-1.4,0-2.1.53.38,1.03.39,1.43-.17.19-.27.5-.53.28-.93-.33-.61-.88-.56-1.44-.48Z"/>
      <path class="cls-5" d="M409.84,50.58c.86-.2,1.41.19,1.87.89,1.52,2.31,2.59,4.87,4.19,7.14.5.71,1.07,1.9-.38,2.79-.7.42.15,1.23.44,1.82-.29-.06-.74-.27-.86-.16-.91.91-1.68.17-2.48-.14-1.11-.97-2.47-.88-3.78-1.13-.06.84,1.73.96.42,1.89-2.04-.45-4.05-1-5.96-1.87-.33-.62-1.67-.55-1.41-1.28.28-.79,1.34-.25,2.05-.29,1.1-.06,2.21-.01,3.35-.01-.18-.92-1.4-.15-1.71-.91.26-.52.85-.83.95-1.45,1.52,0,2.88-.4,3.93-1.57.66-.73.96-1.51.35-2.43-.12-.4.1-.88-.32-1.2,0,0,.02.02.02.02.03-.79-.58-1.38-.67-2.13Z"/>
      <path class="cls-14" d="M408.06,175.65c0-.5.24-1,.61-1.16.97-.42,1.74.03,2.34.84.69-1.02,1.47-1.06,2.25-.14.23.27.44.51.7.26,1.2-1.14,2.06-.83,2.69.71.3-1.44.97-1.75,2.26-1.36.98.29,2.23,1.1,2.79-.95.17-.62.76-1.91,1.87-2.24-.29,1.28-.13,2.56.19,3.8.29,1.11-.58,1.64-.98,2.41-.62-.35-1.58-.04-1.87-1.07-.1-.36-.6-.58-1.02-.52-.47.07-.39.54-.4.87-.02.62-.51.87-.9,1.14-.92.66-3.52.53-4.47-.18-.29-.22-.56-.5-.9-.12-1.32,1.5-1.45.29-1.67-.73-.07-.33-.17-.66-.29-1.15-.22.47-.36.84-.55,1.18-.23.41-.23,1.12-.88,1.08-.55-.03-.74-.62-.99-1.05-.3-.52-.26-1.2-.78-1.61Z"/>
      <path class="cls-14" d="M421.17,80.11c-.21,1.23-.42,2.45-.65,3.68-.04.19.05.56-.34.52-.25-.03-.55-.13-.46-.45.48-1.86-.12-1.6-1.13-.6-.01.01-.15-.1-.23-.16.42-1.82.66-3.64.03-5.46v.02c.02-.54.24-1.12-.3-1.54v.02c.07-.69-.12-1.29-.64-1.76-.68-1.2-.27-2.54-.43-3.8-.19-1.54-1.02-2.91-1.05-4.48h0c1.07.37,1.59,1.08,1.97,2.2.9,2.66,1.87,5.29,2.08,8.04.54-2.99.11-6-.45-9l.07-.06c1.27,1.69,1.19,3.73,1.46,5.68.25,1.82-.3,3.7.28,5.51.22.59,0,1.12-.21,1.65Z"/>
      <path class="cls-14" d="M404.49,185.46c1.3-.14,2.45-.3,3.54-.91.67-.38,1.12.49,1.48,1.01.75,1.1,1.78,1.53,3.07,1.64,1.16.09,2.07-.34,2.52-1.3.51-1.09,1.2-1.04,2.08-.74.45.16,1.02.31,1.24-.15.39-.79.62-.95,1.28-.22.33.37.51-.27.71-.51,1.02-1.23,1.59-.11,2.32.42.9.66.19,1.45-.15,1.56-3.35,1.05-6.61,3.01-10.27,1.97-1.65-.47-3.25-1-4.97-1.13-.45-.03-.89-.19-1.33-.31-.66-.18-1.11-.61-1.52-1.32Z"/>
      <path class="cls-14" d="M371.59,151.5c.58-.94,1.32-1.78,1.65-2.86.17-.57.68-.86,1.12-1.19.95-.72,1.92-1.41,2.89-2.11,1.04,1.18-.03,2.4.07,3.61,0,.05-.32.18-.5.19-.46.04-1,.04-1.14.54-.19.69.76.49.92.96-.39.72-1.44.48-1.78,1.23.16.32.44.23.67.24.63.04,1.14.38,1.19.95.05.58-.55,1.09-1.03,1.13-2,.18-3.82,1.14-5.82,1.3.2-.65.36-1.33.86-1.84.1-.1.21-.21.31-.31,0,0-.03.02-.03.02.15.01.31,0,.44.05.62.23,1.29.5,1.65-.32.39-.9-.43-.87-.94-1.09-.21-.09-.35-.32-.53-.49Z"/>
      <path class="cls-14" d="M390.12,144.59c.73-.72,1.69-1.01,2.6-1.39,1.15-.48,1.67.47,2.15,1.16,1.17,1.68,1.98,3.53,2.21,5.59-1.02-.25-2.03-.56-3.07-.73-3.38-.54-3.95-1.19-3.89-4.63Z"/>
      <path class="cls-14" d="M337.64,49.6c1.22.1,3.89,2.07,4.11,3.08.05.2-.09.47-.19.68-.51,1.19-1.03,2.37-1.55,3.55-1.58-1.17-3.57-1.61-5.1-2.88-.62-.51-1.31-.95-1.65-1.95,1.21.32,2.36.48,3.08,1.48.43.6.95.9,1.51.47.62-.48.98-1.23.42-2-.55-.75-1.12-1.44-.63-2.43Z"/>
      <path class="cls-14" d="M424.81,46.96c-.81-.05-1.59.07-2.38.25-.8.18-1.47-.21-1.99-.82-.57-.67.13-1.09.36-1.59.2-.45.53-.74.36-1.45-.19-.85.89-1.17,1.64-1.36.62-.15,1.28-.14,1.79.38.21.41.28.83.27,1.3-.04,1.5.11,1.59,1.47.91.44-.22.87-.46,1.58-.83-.29,1.4-1.1,2.02-2.02,2.55-.6-.17-.89.2-1.13.65h.04Z"/>
      <path class="cls-14" d="M402.24,172.48c2.07-.69,3.42.95,5.07,1.61.42.17.35.67.2,1.08-.13.37-.17.71.37.75-.27.91-.96,1.94-1.73,1.74-.88-.23-.41-1.57-.65-2.63-.61.92-1.11,1.67-1.61,2.42-.16.23-.24.6-.65.48-.33-.09-.46-.39-.56-.67-.37-1.05-.27-2.16-.2-3.22.04-.6-.15-1.05-.25-1.57Z"/>
      <path class="cls-14" d="M354.11,98.34c.59.06.51.58.57.92.85,4.6,3.27,8.14,7.13,10.72.21.14.42.27.66.43-.75.7-1.11.14-1.5-.14-1.32-.94-2.51-2.01-3.48-3.32-.24-.32-.46-.66-.9-.73-1.77-2.33-2.6-4.96-2.48-7.88Z"/>
      <path class="cls-14" d="M352.53,51.8c-.96-1.7-.67-3.43,1.04-4.44,1.4-.82,2.33-2.65,4.37-2.22-1.6,1.81-3.2,3.62-4.8,5.43-.44.12-.35.48-.36.79.08.24-.01.38-.25.45Z"/>
      <path class="cls-14" d="M350.68,62.7c-.55.51-1.08,1.05-1.66,1.53-.7.58-1.34.4-1.36-.5-.04-1.64.15-3.29.97-4.77.09-.15.29-.33.44-.34.34-.02.32.29.37.53.07.4-.21.96.48,1.09.25.82.51,1.64.76,2.46Z"/>
      <path class="cls-5" d="M423.26,70.66c.13-1.24-.24-2.51.23-3.76,1.13,3.36,1.35,8.65.41,10.53-.74-.6-.76-1.35-.56-2.17.24-.2.22-.45.15-.72-.14-1.3.32-2.65-.24-3.92l.02.04Z"/>
      <path class="cls-5" d="M413.69,90.11c.26-.28.53-.55.79-.83.54.3.25,1.05.74,1.39-.06.9-.07,1.81-.2,2.7-.12.81-.7,1.29-1.46,1.54,0,0,0,.04,0,.04.04-.29-.18-.19-.32-.21-.03-.41-.06-.83-.09-1.24.18-1.13.36-2.27.55-3.4Z"/>
      <path class="cls-14" d="M409.26,63.69c1.31-.94-.48-1.06-.42-1.89,1.31.25,2.67.16,3.78,1.13-.07.48.64.67.35,1.32-.49,1.13-1.02,1.32-1.98.53-.52-.43-.96-1.04-1.74-1.08Z"/>
      <path class="cls-14" d="M417.54,81.63c.08-1.54-.73-2.87-1.03-4.32-.08-.39-.24-.77-.29-1.16-.05-.42-.25-.98.27-1.21.53-.23.58.38.82.66.08.09.27.09.41.13.12.13.24.26.37.39,0,0-.01-.02-.01-.02.11.51-.16,1.1.31,1.54,0,0,0-.02,0-.02.02.74.08,1.48.04,2.21-.03.71.05,1.51-.88,1.79Z"/>
      <path class="cls-5" d="M423.13,60.86c-.73-.75-.72-1.64-.54-2.56.58-.23.69.52,1.14.5,0,0,.08.12.08.12.08.42.21.81.69.94.67.93,1.35,1.86,2.12,2.92-1.51-.2-2.48-1.11-3.5-1.91Z"/>
      <path class="cls-14" d="M416.12,130.99c-1.21-2.34-1.47-4.86-1.18-7.47.46,2.48.85,4.97,1.18,7.47Z"/>
      <path class="cls-14" d="M403.23,64.74c-2.31-.66-4.67-.59-7.03-.55,2.42-.72,4.82-1.17,7.03.55Z"/>
      <path class="cls-5" d="M421.61,63.65c1.04-.26,1.31-1.03,1.32-1.98.72.58.94,1.45.98,2.26.03.59-.82.96-.83,1.7,0,.13-.37-.1-.5-.33-.31-.56-.65-1.11-.98-1.66Z"/>
      <path class="cls-5" d="M421.17,80.11c.22-.53.43-1.06.21-1.65.09-1.85.18-3.71.27-5.56.18-.7.29-1.39-.17-2.03-.01-.24-.02-.48-.03-.72.19,0,.39,0,.58,0,.03.32.05.64.08.97-.14.71-.23,1.42.23,2.06,0,.43,0,.86,0,1.29-.51,1.93-.53,3.92-.65,5.9-.23.02-.41-.05-.51-.27Z"/>
      <path class="cls-14" d="M421.68,80.38c.12-1.97.14-3.96.65-5.9.85,2.08.66,4.05-.65,5.9Z"/>
      <path class="cls-14" d="M364.66,170.8c-.11-.79,0-1.6-.26-2.39-.43-1.31,0-1.68,1.25-1.07-.14,1.21.08,2.51-.99,3.46Z"/>
      <path class="cls-14" d="M360.64,64.7c-1.99-.39-3.6.86-5.41,1.25-.14.03-.28.05-.41.08.03-.19.06-.39.09-.58,0,0-.03.02-.03.02,1.74-.48,3.34-1.41,5.17-1.61.92-.1.96-.02.6.84Z"/>
      <path class="cls-14" d="M422.02,70.16c-.19,0-.39,0-.58,0-.41-1.59-.82-3.19-.44-4.88.82,1.52,1.07,3.17,1.02,4.89Z"/>
      <path class="cls-5" d="M417.54,81.63c.93-.28.85-1.08.88-1.79.03-.74-.02-1.48-.04-2.21.63,1.82.39,3.64-.03,5.46-.73-.23-.43-1.03-.81-1.46Z"/>
      <path class="cls-14" d="M413.15,93.5c.03.41.06.83.09,1.24.07.12.12.29.32.21,0,0,0-.04,0-.04-.53.72.6,1.87-.62,2.41-.54-.71-.21-1.62-.56-2.38.09-.57.37-1.04.76-1.44Z"/>
      <path class="cls-14" d="M423.49,74.55c.07.26.09.52-.15.72-.71-2.13-.78-4.32-.8-6.79.71.8.11,1.66.72,2.18,0,0-.02-.04-.02-.04.11,1.31-.28,2.64.24,3.92Z"/>
      <path class="cls-14" d="M349.52,179.26c-1.35-.06-2.3-.41-3.18-1.12q1.66-.35,3.18,1.12Z"/>
      <path class="cls-5" d="M347.24,90.62c-.9-.83-.57-2-1.15-3.21.9.54.76,1.28,1.17,1.71,0,.5-.01,1-.02,1.49Z"/>
      <path class="cls-14" d="M415.22,90.66c-.48-.34-.19-1.08-.74-1.39-.03-.05-.06-.09-.09-.14.02-.29.03-.58.05-.87,0,0-.02.03-.02.03.42-.14.36-.87,1.12-.77-.42,1.03-.12,2.1-.33,3.14Z"/>
      <path class="cls-14" d="M410.49,74.61c.57.49.96,1.12,1.3,1.79.08.16.23.38,0,.52-.25.14-.55.03-.59-.23-.09-.75-.78-1.29-.68-2.09,0,0-.02.02-.02.02Z"/>
      <path class="cls-14" d="M411.29,103.45c-.34-.78.54-1.12.64-1.74-.09.62.66,1.56-.64,1.74Z"/>
      <path class="cls-14" d="M412.36,100.39c.09-.37-.21-.84.29-1.1.42-.03.48.23.46.57-.02.51-.43.45-.75.53Z"/>
      <path class="cls-14" d="M409.57,75.83c.58.09.88.39.81,1.14-.62-.24-.74-.68-.79-1.16,0,0-.02.02-.02.02Z"/>
      <path class="cls-5" d="M418.09,76.13c-.12-.13-.24-.26-.37-.39-.37-.4-.17-.92-.29-1.37.52.47.71,1.07.65,1.76Z"/>
      <path class="cls-5" d="M424.77,46.96c.24-.45.53-.82,1.13-.65-.37.22-.53.82-1.13.65Z"/>
      <path class="cls-14" d="M419.3,66.69c-.68-.01-.67-.45-.57-1.01.49.21.63.55.56,1.02h0Z"/>
      <path class="cls-14" d="M424.5,59.85c-.48-.13-.61-.52-.69-.94.54.09.6.52.69.94Z"/>
      <path class="cls-14" d="M422.33,73.19c-.46-.64-.36-1.35-.23-2.06.47.64.39,1.35.23,2.06Z"/>
      <path class="cls-14" d="M421.48,70.87c.46.64.35,1.34.17,2.03-.46-.64-.28-1.34-.17-2.03Z"/>
      <path class="cls-14" d="M422.49,68.19c-.22-.55-.29-.92-.04-1.39.25.44.26.82.04,1.39Z"/>
      <path class="cls-14" d="M389.52,28.06c.11-.19.23-.38.34-.57.26-.06.33.12.39.32-.23.09-.47.18-.7.27l-.03-.03Z"/>
      <path class="cls-14" d="M365.86,167.13c-.2-.31.07-.45.23-.64.12.28.06.5-.23.64Z"/>
      <path class="cls-14" d="M419.57,67.33c-.4-.09-.3-.38-.27-.64,0,0,0,0,0,0,.36.05.38.29.34.58,0,0-.07.06-.07.06Z"/>
      <path class="cls-14" d="M415.95,66.09c-.08-.09-.16-.18-.25-.27.05-.04.11-.08.16-.13.03.13.06.26.1.39,0,0,0,0,0,0Z"/>
      <path class="cls-5" d="M352.78,51.36c0-.31-.08-.67.36-.79-.12.26-.24.53-.36.79Z"/>
      <path class="cls-14" d="M410.18,74.31c.1.1.21.2.31.3,0,0,.02-.02.02-.02-.1-.1-.21-.2-.31-.3l-.02.02Z"/>
      <path class="cls-14" d="M409.28,73.38s-.08-.05-.11-.08c-.02-.02,0-.06,0-.09.03.06.07.12.1.19l.02-.02Z"/>
      <path class="cls-14" d="M410.2,74.29c-.1-.1-.2-.2-.3-.3,0,0-.02.02-.02.02.1.1.2.2.31.3,0,0,.02-.02.02-.02Z"/>
      <path class="cls-14" d="M409.57,73.7c.21,0,.3.1.3.3,0,0,.02-.02.02-.02-.1-.1-.2-.2-.3-.3,0,0-.02.02-.02.02Z"/>
      <path class="cls-14" d="M409.26,73.4c.21,0,.31.1.31.31,0,0,.02-.02.02-.02-.1-.1-.21-.21-.31-.31,0,0-.02.02-.02.02Z"/>
      <path class="cls-5" d="M422.94,61.61c-.43-.14-.32-.3-.01-.46,0,.15,0,.3.01.46Z"/>
      <path class="cls-14" d="M408.34,72.49l.19.09s-.07.01-.08,0c-.03-.03-.05-.07-.08-.11l-.02.02Z"/>
      <path class="cls-14" d="M408.36,72.48s-.08-.05-.11-.08c-.01-.02,0-.05,0-.08.03.06.06.12.09.18,0,0,.02-.02.02-.02Z"/>
      <path class="cls-14" d="M349.98,59.09c-.03-.07-.07-.14-.08-.21,0-.02.06-.05.1-.08,0,.1-.01.19-.02.29Z"/>
      <path class="cls-13" d="M383.09,83.77c-.88.31-1.58.83-2.3,1.46-1.96,1.71-4.5,2.25-6.95,2.86-.64.16-1.29-.49-1.84-.94-1.44-1.17-2.87-2.36-4.3-3.54,0,0-.05-.14-.05-.14,1.04-.65-.02-1.67.43-2.42.58-.24,1.16-.64,1.77-.07,1.09,1.03,2.48,1.27,3.88,1.5,1.02.15,2.02.75,3.07.2.43-.22.73.05.94.23.86.72,1.73.63,2.66.21.67,1.17,1.82.31,2.7.63Z"/>
      <path class="cls-14" d="M376.8,110.47c-.69.25-1.22-.33-1.86-.37-.77-1.6-.55-3.36-.81-5.04-.11-.32-.04-.64.19-.84.44-.36-.57-1.51.53-1.26.81.19,1.78.8,1.81,1.88.03.95.54,1.56,1.18,2.05.79.6,1.28-.16,1.78-.62.86-.79,1.93-.34,2.54.03,1.76,1.08,3.29,2.54,5.33,3.16.01,0-.05.27-.08.42-1.03-.47-2.01-.29-2.97.26.99-.09,1.98-.18,2.97-.27.81-.11,1.62-.26,2.36.56-2.3.1-4.6.2-6.9.3-2.01-.48-4.06.06-6.07-.26Z"/>
      <path class="cls-13" d="M354.75,96.52c3.31,5.58,8.43,8.65,14.43,10.5.21.05.43.1.64.15.9.38,1.8.77,2.71,1.15-.3.17-.56.44-.96.31-4.35-1.42-8.71-2.8-12.33-5.79-1.46-1.2-2.68-2.6-3.75-4.13-.45-.64-.91-1.32-.74-2.2Z"/>
      <path class="cls-14" d="M380.3,119.39c1.26-1.64,2.39-3.12,3.54-4.59.29-.38.6-1.02,1.16-.41.47.51,1.43.81,1.11,1.79-.74,2.27-3.07,3.62-5.81,3.22Z"/>
      <path class="cls-14" d="M394.78,108.38c.9,1.97,1.22,4.19,2.15,6.08.85,1.72.65,3.41.76,5.17-1.09-3.33-2.18-6.65-3.28-9.98.2-.4-.15-.96.37-1.27Z"/>
      <path class="cls-14" d="M404.31,160.63c.94-1.8-.78-2.79-.76-4.26.02-.98.05-1.97,1.3-1.88,1.15.08,1.39,1.13,1.22,2.04-.2,1.04-.49,1.91.75,2.54.45.23-.03.72-.32.73-.7.03-1.12.65-2.19.84ZM404.68,155.36c-.33.05-.55.26-.53.59.03.53-.04,1.18.61,1.4.31.11.59-.2.56-.54-.05-.53,0-1.13-.63-1.46Z"/>
      <path class="cls-14" d="M418.84,166.65c-1.07-.69-1.2-1.75-1.03-2.86.11-.73.54-1.41-.14-2.1-.19-.19-.24-.59.04-.82.23-.18.46-.05.67.11.56.44,1.67.12,1.7,1.29.04,1.15-.43,2.38.46,3.43-.14.06-.27.11-.41.17-.43-.46-.66-1.15-1.53-1.42.09.86.16,1.52.23,2.19Z"/>
      <path class="cls-14" d="M381.74,112.43c-1.62.64-2.91,1.36-3.97,2.48-1.07,1.13-.97,2.66-1.13,4.11-.16-.05-.31-.1-.47-.16.31-1.74.67-3.48.92-5.23.12-.87.49-1.24,1.36-1.21,1.02.04,2.03,0,3.28,0Z"/>
      <path class="cls-14" d="M395.36,107.24c2.64-1.6,5.57-2.57,8.09-4.31.25-.17.52-.31.77-.47.31-.2.62-.75,1-.33.43.48-.05.8-.44,1.06-2.9,1.92-5.99,3.4-9.42,4.05Z"/>
      <path class="cls-14" d="M363.04,110.88c3.21,1.83,6.21,3.21,9.42,4.1-2.34.4-8.45-2.14-9.42-4.1Z"/>
      <path class="cls-13" d="M394.78,108.38c-.52.31-.17.87-.37,1.27-.35-.18-.47-.5-.5-.86-.14-2.19-.27-4.38-.41-6.58.22,0,.44,0,.66.01.21,2.05.41,4.1.62,6.15Z"/>
      <path class="cls-13" d="M413.15,93.5c-.39.41-.67.88-.76,1.44-.44.69-.37,1.81-1.56,1.88l-.05-.04c.18-1.24,1.01-2.21,1.41-3.36.28-.79.67-1.53.45-2.4,0,0-.04.02-.04.02.37.12.25-.15.26-.33.31-.16.35-.68.83-.61-.18,1.13-.36,2.27-.55,3.4Z"/>
      <path class="cls-14" d="M389.27,118.81c-1.2.42-2.27.41-3.45.37.24-.92.82-1.75,1.53-1.91.91-.2,1.25.91,1.92,1.54Z"/>
      <path class="cls-14" d="M355.54,148.64c.32-1.03,1.24-1,1.94-1.27.26-.1.82.15.65.31-.66.62.4,1.86-.43,1.9-.54.03-1.65-.17-2.16-.93Z"/>
      <path class="cls-14" d="M364.17,171.95c-.78-1.41-1.49-2.36-1.68-3.57-.05-.32-.27-.63.24-.84.47-.2.75.1.84.38.37,1.15,1.09,2.26.61,4.03Z"/>
      <path class="cls-13" d="M418.84,166.65c-.07-.67-.14-1.33-.23-2.19.87.27,1.1.96,1.53,1.42.01.18.02.36.04.54-.16.37.04.98-.65,1-.06-.02-.12-.04-.18-.08-.11-.12-.21-.25-.32-.37-.06-.11-.13-.21-.19-.32Z"/>
      <path class="cls-14" d="M417.45,154.37c.07.28-.02.45-.26.44-.32-.02-.71.28-.94-.17-.41-.8-.81-1.6-1.18-2.42-.11-.24-.06-.52.2-.65.31-.15.6-.05.8.21.61.8.62,1.91,1.39,2.58Z"/>
      <path class="cls-13" d="M371.59,151.5c.17.17.32.4.53.49.51.22,1.32.2.94,1.09-.35.82-1.02.55-1.65.32-.13-.05-.29-.03-.44-.05-.11-.73.33-1.26.62-1.85Z"/>
      <path class="cls-14" d="M372.53,108.32c-.9-.38-1.81-.77-2.71-1.15,1.33-.47,2.99.04,3.86,1.19-.08.07-.15.13-.23.2-.49.64-.61-.2-.92-.24Z"/>
      <path class="cls-13" d="M353.55,156.58c-.12.63-.62.97-1.31,1.06-.33.04-.49-.21-.33-.46.32-.5.05-1.43.95-1.49.41-.03.73.28.69.89Z"/>
      <path class="cls-13" d="M376.8,110.47c2.01.32,4.07-.22,6.07.26-1.61.11-3.24-.05-4.82.51-.47.17-1.24.13-1.25-.78Z"/>
      <path class="cls-13" d="M373.46,108.56c.08-.07.15-.13.23-.2.86-1,.15-2.22.44-3.3.26,1.68.04,3.44.81,5.04-1.21.18-.62-1.39-1.49-1.54Z"/>
      <path class="cls-13" d="M410.83,96.83c-.33,1.59-1.43,2.55-2.71,3.37-.09-.09-.18-.18-.27-.27,1.04-.99,1.61-2.42,2.93-3.15,0,0,.05.04.05.04Z"/>
      <path class="cls-13" d="M355.14,168.18v2.66c-.88-.66-.54-1.77-1.19-2.37.24-.73.71-.56,1.19-.29Z"/>
      <path class="cls-14" d="M391.24,111.94c-.86.12-1.73.24-2.59.34-.23.03-.53,0-.57-.32-.04-.32.2-.44.46-.44.9.01,1.82-.28,2.7.42Z"/>
      <path class="cls-14" d="M405.03,109.18c.87-.42,1.27-1.38,2.26-2.04-.3,1.43-1.08,1.97-2.26,2.04Z"/>
      <path class="cls-14" d="M406.66,164.43c-.43-.04-.94.12-.94-.37,0-.64.65-.69,1.1-.81.5-.13.81.3.8.67-.01.72-.7.31-.96.51Z"/>
      <path class="cls-14" d="M385.63,104.77c-.77.69-1.62,1.21-2.91,1.45.81-1.12,1.78-1.39,2.79-1.59.04.05.09.09.13.14Z"/>
      <path class="cls-14" d="M402.92,146.02c.49,0,.8.37.9.8.07.32-.29.48-.61.51-.53.05-.66-.36-.8-.74-.15-.42.13-.52.51-.58Z"/>
      <path class="cls-13" d="M408.12,100.2c-.55.65-1.08,1.33-2.34,1.63.7-.98,1.2-1.63,2.07-1.9.09.09.18.18.27.27Z"/>
      <path class="cls-14" d="M419.53,167.42c.69-.02.49-.63.65-1,.79.15.77.81.51,1.22-.37.58-.82.14-1.16-.22Z"/>
      <path class="cls-14" d="M394.16,102.23c-.22,0-.44,0-.66-.01-.07-.42-.27-.87.12-1.23.07-.06.34-.05.36,0,.19.39.75.75.17,1.25Z"/>
      <path class="cls-14" d="M407.59,106.87c.35-.59.62-.98,1.28-1.13-.13.66-.45.98-1.28,1.13Z"/>
      <path class="cls-14" d="M386.23,104.44c-.2.11-.4.22-.6.32-.04-.05-.08-.09-.13-.14.14-.24.35-.31.61-.3.04.04.08.08.12.11Z"/>
      <path class="cls-13" d="M371,153.34c-.1.1-.21.21-.31.31.07-.13,0-.41.31-.31Z"/>
      <path class="cls-14" d="M419.03,166.97c.11.12.21.25.32.37-.22-.02-.35-.13-.32-.37Z"/>
      <path class="cls-14" d="M386.12,104.33c.08-.14.18-.25.32-.06,0,0-.13.11-.2.18-.04-.04-.08-.08-.12-.11Z"/>
      <path class="cls-14" d="M346.81,35.69c-2.72,1.6-4.65-.54-7.17-1.34.47,1.57,1.49,2.44,2.45,3.27.99.85,1.69,1.82,2.1,3.05.15.44.19.94-.3.98-1.72.15-1.81,1.48-2.13,2.68-.23.87-.16,1.84-1.07,2.48-.23.16-.1.85-.14,1.36-1.65-3.88-3.41-7.66-4.28-11.76-.41-1.9-.61-3.84-.72-5.78-.03-.63.43-.65.81-.6.7.08,1.42.16,2.07.39,3.17,1.13,6,2.8,8.38,5.26Z"/>
      <path class="cls-13" d="M409.84,50.58c.09.75.7,1.34.67,2.13-2.73-1.6-4.2-4.29-5.9-6.79-.35-.51-.16-1.17-.18-1.76,1.22.12,1.44,1.45,2.35,1.96.22,1.77,1.84,2.52,2.76,3.78-.04.3.03.56.33.7l-.03-.02Z"/>
      <path class="cls-14" d="M416.55,21.98c-.3,1.48-.67,2.94-.67,4.51-.45-.14-.9-.64-1.35.07-.26.41-.74.67-1.12,1-.32.28-.59.55-.99.06-.3-.38-.38-.69-.05-1.06,1.38-1.53,2.55-3.26,4.18-4.57h-.01Z"/>
      <path class="cls-14" d="M421.55,35.18c.3,2.05.1,3.72-.23,5.6-.55-.83-1.2-1.18-2.04-1.24-.39-.03-.8-.23-.85-.72-.04-.42.02-.82.51-.96,1.22-.35,1.74-1.43,2.61-2.67Z"/>
      <path class="cls-13" d="M380.27,61.04c.12.29.2.75-.16.72-1.49-.15-2.92,1.51-4.45.17-.13-.11-.38-.07-.58-.1.22-.12.48-.38.64-.33,1.59.48,3.01-.59,4.55-.45Z"/>
      <path class="cls-14" d="M398.58,28.39c-1.21.87-2.9.68-3.13,2.46-.04.3-.72-.03-1.03-.25-.55-.37-.16-.7.14-.95,1.08-.91,2.37-1.21,4.03-1.27Z"/>
      <path class="cls-14" d="M361.55,39.49c1.54.08,2.59.94,3.4,2.18-1.4-.31-2.49-1.11-3.4-2.18Z"/>
      <path class="cls-14" d="M401.99,32.93c1.04-.06,2.1-.38,3.35.26-1.29-.2-2.38,1.16-3.38-.22l.03-.03Z"/>
      <path class="cls-14" d="M371.31,35.97c-.75-.2-1.2-.76-1.84-1.57,1.13.26,1.59.79,1.83,1.58h.01Z"/>
      <path class="cls-14" d="M388.65,29.31c-.18.51-.39,1.01-.91,1.46-.05-.75.21-1.24.76-1.58.05.04.1.08.15.12Z"/>
      <path class="cls-14" d="M389.55,28.09c-.08.57-.5.89-.9,1.23-.05-.04-.1-.08-.15-.12.15-.55.36-1.05,1.02-1.13,0,0,.03.03.03.03Z"/>
      <path class="cls-13" d="M354.9,65.45c-.03.19-.06.39-.09.58-.22-.04-.62.09-.62-.18,0-.31.38-.41.71-.4Z"/>
      <path class="cls-14" d="M401.96,32.96c-.32-.03-.65-.06-1.1-.1.5-.29.83-.32,1.12.06,0,0-.03.03-.03.03Z"/>
      <path class="cls-14" d="M408.37,42.35c-.14-.03-.28-.06-.42-.09.02-.04.05-.09.07-.13.11.08.22.16.33.24,0,0,.01-.02.01-.02Z"/>
      <path class="cls-14" d="M416.56,21.99s.05-.07.08-.11c-.03.03-.06.06-.09.1,0,0,.01.01.01.01Z"/>
      <path class="cls-13" d="M399.59,25.98c-.05.12-.06.31-.24.21-.06-.03-.01-.25-.02-.39.09.06.17.11.26.17Z"/>
      <path class="cls-14" d="M371.3,35.98s.07.03.1.05c-.03-.02-.06-.04-.09-.06,0,0-.01.01-.01.01Z"/>
      <path class="cls-14" d="M409.89,42.05s-.09-.09-.14-.13c.03,0,.07,0,.09.03.02.03.02.08.03.12,0,0,.02-.02.02-.02Z"/>
      <path class="cls-13" d="M404.45,44.18c-.07-.03-.14-.05-.21-.08.06-.08.13-.15.19-.23.03.07.07.13.08.2,0,.03-.04.07-.06.11Z"/>
      <path class="cls-13" d="M342.15,71.84c-.03.09-.05.17-.08.26-.06-.07-.11-.13-.17-.2.09-.01.17-.04.25-.06Z"/>
      <path class="cls-5" d="M402.65,53.08c-.51-.02-.76.15-.6.72.3,1.07.5,2.16.88,3.2.44,1.2.34,1.81-1.15,1.72-1.05-.06-2.11.07-3.17.11-2.72-.13-5.39.09-7.95,1.12-.55.06-.95.06-1.25-.64-1.99-4.73-.35-10.58,3.81-13.53.93-.66,1.92-.58,2.91-.39,3.9.74,6.72,2.84,8.15,6.65.17.44.22.88.11,1.33-.61,0-.89-.57-1.36-.8-.3-.15-.62-.77-.96-.28-.34.49.59.37.59.8ZM393.89,53.59c-.47.09-.86.41-.82.99.03.49.35.84.9.84.59,0,.97-.35,1-.92.03-.61-.39-.88-1.08-.91ZM396.49,49.75c-1-.74-1.8-.24-2.57.01-.51.17-1.5.41-1.21.95.38.71.79-.4,1.29-.43.33-.02.58-.43.97-.16.6.42.99-.1,1.52-.37Z"/>
      <path class="cls-5" d="M373.72,82.5c-1.4-.23-2.79-.47-3.88-1.51-.61-.58-1.19-.17-1.77.07-.28-.1-.55-.19-1-.35.76-.6,1.54-.65,2.32-.63,4.71.11,9.33-.5,13.88-1.71,1.45-.39,2.89.07,4.36,0,2.74-.12,5.42-.54,8.11-1,.33-.06.67-.23.98.06-1.29,1.69-2.84,2.95-5,3.3-.08-.08-.17-.17-.25-.25-.02-.83-.51-.83-1.1-.59-.32.13-.64.47-.92.43-1.81-.26-3.56.35-5.29.55-1.74.2-3.52.18-5.26.4-.93.12-1.94.74-2.84.33-1.2-.55-1.75.07-2.33.89Z"/>
      <path class="cls-13" d="M402.65,53.08c0-.43-.92-.31-.59-.8.34-.49.66.13.96.28.47.23.75.79,1.36.8.66,1.53,2.01,2.73,2.14,4.51-.1.62-.68.93-.95,1.45-1.16-.03-1.56-.52-1.51-1.76.06-1.6-.31-3.2-1.42-4.49Z"/>
      <path class="cls-13" d="M408.04,85.79c-.28-2.15,0-4.36-.65-6.48-.3-.99-.51-2.01-1.01-2.94,1.2,1.19,1.81,3.56,2.21,8.48-.47.14-.13.76-.55.94Z"/>
      <path class="cls-13" d="M392.35,70.73c2-.61,5.43-.11,7.7,1.14-2.44-.36-4.89-.72-7.7-1.14Z"/>
      <path class="cls-5" d="M383.09,83.77c-.87-.32-2.02.54-2.7-.63,2.28.22,4.47-.56,6.72-.62l-.02-.02c-1.32.46-2.48,1.47-4.01,1.27Z"/>
      <path class="cls-13" d="M390.66,59.95c2.56-1.03,5.23-1.26,7.95-1.12-1.94.31-3.88.66-5.83.9-.7.09-1.32,1.15-2.12.22Z"/>
      <path class="cls-5" d="M408.04,85.79c.42-.18.07-.8.55-.94.85.99.88,1.22.31,3.23-.92-.51-.92-1.39-.86-2.28Z"/>
      <path class="cls-5" d="M390.84,81.11c-.67.44-1.4.72-2.2.81,0,0-.06-.08-.06-.08.53-.7,1.32-.81,2.1-.95.05.07.1.14.15.21Z"/>
      <path class="cls-5" d="M388.64,81.92c-.37.58-1.01.45-1.54.58,0,0,.02.02.02.02.18-.89.91-.6,1.47-.68l.06.08Z"/>
      <path class="cls-13" d="M410.49,52.68c.42.32.2.8.32,1.2-.59-.27-.18-.81-.32-1.2Z"/>
      <path class="cls-5" d="M391.71,80.74c-.29.12-.58.24-.88.36-.05-.07-.1-.14-.15-.21.26-.14.52-.27.78-.41.08.08.17.17.25.25Z"/>
      <path class="cls-13" d="M414.44,88.27c-.02.29-.03.58-.05.87-.41-.31-.33-.6.05-.87Z"/>
      <path class="cls-5" d="M412.87,90.72c0,.17.11.45-.26.33.09-.11.17-.22.26-.33Z"/>
      <path class="cls-5" d="M367.58,50.12c-.5.35-.9.56-1.29.41-2.93-1.15-4.68,1-6.6,2.45-1.22.92-2.3,2.09-3.2,3.71.36-4.37,4.18-7.56,7.66-8.08,1.23-.18,2.4.58,3.43,1.52Z"/>
      <path class="cls-13" d="M360.66,56.7c.56-.08,1.11-.13,1.44.48.22.41-.09.67-.28.93-.4.56-.9.55-1.43.17,0-.54-.04-1.09.27-1.58Z"/>
      <path class="cls-13" d="M373.43,57.25c-.67-1.43-.19-2.89,0-4.34,0,1.45,0,2.9,0,4.36,0,0,0-.01,0-.01Z"/>
      <path class="cls-5" d="M418.12,53.33s-.18.13-.23.09c-.14-.1-.27-.26-.34-.42-.07-.18.09-.26.24-.26.25,0,.28.21.33.59Z"/>
      <path class="cls-5" d="M416.87,52.01c.16-.08.28-.19.36-.17.1.04.2.18.21.29.01.12-.06.3-.25.2-.11-.06-.18-.18-.32-.32Z"/>
      <path class="cls-5" d="M416.32,50.82c.26.02.52.06.51.41,0,.07-.11.2-.16.2-.32-.01-.4-.25-.44-.51l.09-.09Z"/>
      <path class="cls-5" d="M409.87,50.6c-.3-.14-.37-.4-.33-.7.38.11.43.37.33.7Z"/>
      <path class="cls-5" d="M416.23,50.9l-.13-.19c.07.03.15.07.22.1,0,0-.09.09-.09.09Z"/>
      <path class="cls-13" d="M358.49,177.97c-.49.04-.9-.14-1.3-.38-.37-.23-.57-.63-.57-1.02,0-.5.52-.34.82-.46.85-.32,1.7-.63,2.56-.94.79-.28.96-.06.79.78-.27,1.32-.84,2.15-2.3,2.01Z"/>
      <path class="cls-5" d="M357.94,170.7c-.11.15-.21.3-.32.44-.05-.06-.1-.12-.15-.18.16-.09.32-.17.48-.26h0Z"/>
      <path class="cls-5" d="M418.39,77.65c-.47-.44-.21-1.03-.31-1.54.54.43.32,1.01.31,1.54Z"/>
      <path class="cls-13" d="M423.49,74.55c-.53-1.28-.14-2.62-.24-3.92.56,1.28.1,2.62.24,3.92Z"/>
      <path class="cls-13" d="M413.56,94.96c-.21.08-.25-.09-.32-.21.14.02.36-.08.32.21Z"/>
      <path class="cls-14" d="M391.46,80.49c-.26.14-.52.27-.78.41-.78.14-1.57.25-2.1.95-.56.07-1.29-.22-1.47.68-2.26.06-4.44.84-6.72.62-.92.42-1.8.51-2.66-.21-.21-.18-.51-.45-.94-.23-1.04.54-2.05-.06-3.07-.2.57-.82,1.13-1.44,2.33-.89.9.41,1.91-.21,2.84-.33,1.74-.22,3.52-.2,5.26-.4,1.73-.2,3.48-.81,5.29-.55.28.04.6-.31.92-.43.58-.23,1.08-.24,1.1.59Z"/>
      <path class="cls-5" d="M387.41,109.88c-.99.09-1.98.18-2.97.27.96-.55,1.95-.73,2.97-.26,0,0,0-.01,0-.01Z"/>
      <path class="cls-13" d="M404.68,155.36c.64.33.59.93.63,1.46.03.34-.25.64-.56.54-.64-.22-.58-.87-.61-1.4-.02-.32.2-.54.53-.59Z"/>
      <path class="cls-13" d="M393.89,53.59c.69.03,1.11.3,1.08.91-.03.57-.41.91-1,.92-.54,0-.87-.35-.9-.84-.04-.59.35-.9.82-.99Z"/>
      <path class="cls-13" d="M396.49,49.75c-.52.27-.91.8-1.52.37-.39-.27-.64.14-.97.16-.49.03-.9,1.14-1.29.43-.29-.54.7-.78,1.21-.95.76-.25,1.56-.76,2.57-.01Z"/>
    </g>
  </g>
  <g id="Calque_6" data-name="Calque 6">
    <path class="cls-9" d="M37.4,103.17v-9.83h-10.69v-9.72h-9.83v-10.91h10.91v9.83h28.3v-18.58h-29.38v-9.72h-9.83v-20.52h9.83v-9.83h10.69v-9.83h11.02v9.83h8.75v9.83h9.94v10.8h-11.02v-9.72h-28.3v18.47h29.38v9.61h9.94v20.74h-9.94v9.72h-8.75v9.83h-11.02Z"/>
    <path class="cls-9" d="M80.32,93.67v-59.62h9.83v-9.83h10.8v10.91h-9.72v18.47h8.64v-9.83h9.94v-9.72h9.72v-9.83h11.02v10.91h-9.94v9.72h-9.72v9.72h-9.94v8.64h9.94v9.83h9.72v9.83h9.94v10.8h-11.02v-9.72h-9.72v-9.83h-9.94v-9.83h-8.64v29.38h-10.91Z"/>
    <path class="cls-9" d="M143.6,93.67v-10.8h9.83v-47.74h-9.83v-10.91h30.56v10.91h-9.94v47.74h9.94v10.8h-30.56Z"/>
    <path class="cls-9" d="M187.23,93.67v-59.62h9.83v-9.83h10.8v9.83h9.94v19.55h8.64v-19.55h9.94v-9.83h10.91v9.83h9.72v59.62h-10.8v-58.54h-8.75v19.44h-9.94v29.38h-10.8v-29.38h-9.94v-19.44h-8.64v58.54h-10.91Z"/>
    <path class="cls-9" d="M279.9,93.67v-9.72h-9.83v-49.9h9.83v-9.83h30.46v9.83h9.94v20.52h-9.94v8.64h9.94v20.74h-9.94v9.72h-30.46ZM280.98,82.87h28.3v-18.58h-19.66v-10.69h19.66v-18.47h-28.3v47.74Z"/>
    <path class="cls-9" d="M185.02,175.67v-9.72h-9.83v-59.72h10.91v58.64h28.3v-58.64h11.02v59.72h-9.94v9.72h-30.46Z"/>
    <path class="cls-9" d="M238.48,175.67v-59.62h9.83v-9.83h30.46v9.83h9.94v30.24h-9.94v9.83h-29.38v19.55h-10.91ZM249.39,145.21h28.3v-28.08h-28.3v28.08Z"/>
  </g>
</svg>